<?xml version="1.0" standalone="no"?>
<!DOCTYPE svg PUBLIC "-//W3C//DTD SVG 1.1//EN" "http://www.w3.org/Graphics/SVG/1.1/DTD/svg11.dtd" >
<svg xmlns="http://www.w3.org/2000/svg">
<metadata>
<json>
<![CDATA[
{
	"fontFamily": "BlueMagic",
	"majorVersion": 3,
	"minorVersion": 0,
	"designer": "Alex Botos",
	"description": "Blue Magic Iconset\nFont generated by IcoMoon.",
	"fontURL": "http://www.temenos.com",
	"designerURL": "http://www.visualdeluxe.com",
	"copyright": "Temenos UK Ltd.",
	"version": "Version 3.0",
	"fontId": "BlueMagic",
	"psName": "BlueMagic",
	"subFamily": "Regular",
	"fullName": "BlueMagic"
}
]]>
</json>
</metadata>
<defs>
<font id="BlueMagic" horiz-adv-x="1024">
<font-face units-per-em="1024" ascent="960" descent="-64" />
<missing-glyph horiz-adv-x="1024" />
<glyph unicode="&#x20;" horiz-adv-x="512" d="" />
<glyph unicode="&#x21;" glyph-name="exclam" data-tags="exclam" d="M955 44.667l-84.001 294c-1.333 4.667-3.833 8.334-7.5 11.001s-7.834 4-12.501 4h-36v-150c0-17.333-6.167-32.166-18.5-44.499s-27.166-18.5-44.499-18.5h-476c-17.333 0-32.166 6.167-44.499 18.5s-18.5 27.166-18.5 44.499v0 150h-36c-4.667 0-8.834-1.333-12.501-4s-6.167-6.334-7.5-11.001l-84-294c-1.333-2.667-1.666-5.667-0.999-9s2-6.333 4-9 4.5-4.667 7.5-6 6.167-2 9.5-2h842c3.333 0 6.5 0.667 9.5 2s5.167 3.333 6.5 6c2 2.667 3.333 5.667 4 9s0.667 6.333 0 9v0zM218.999 507.667l295.001 254.002 295-254c2.667-2 5.834-3.667 9.501-5s7.167-2 10.5-2c4.667 0 9 0.833 13 2.5s7.667 4.5 11 8.5c6 6.667 8.667 14.334 8 23.001s-4.334 15.667-11.001 21l-316 272c-6 4.667-12.833 7-20.5 7s-14.5-2.333-20.5-7l-315-272c-6.667-5.333-10.334-12.333-11.001-21s1.666-16.334 6.999-23.001c6-6.667 13.333-10.334 22-11.001s16.334 1.666 23.001 6.999v0zM527 721.669c-4 3.333-8.5 5-13.5 5s-9.5-1.667-13.5-5l-238-205c-2-2-3.667-4.5-5-7.5s-2-5.833-2-8.5v-297c0-6 2-11 6-15s9-6 15-6h475c6 0 11 2 15 6s6 9 6 15v297c0 2.667-0.5 5.5-1.5 8.5s-2.833 5.5-5.5 7.5l-238 205zM493 275.669c0-6-2.167-11-6.5-15s-9.166-6-14.499-6h-74c-6 0-11 2-15 6s-6 9-6 15v74c0 5.333 2 10.166 6 14.499s9 6.5 15 6.5h74c5.333 0 10.166-2.167 14.499-6.5s6.5-9.166 6.5-14.499v-74zM493 433.669c0-6-2.167-11-6.5-15s-9.166-6-14.499-6h-74c-6 0-11 2-15 6s-6 9-6 15v74c0 5.333 2 10.166 6 14.499s9 6.5 15 6.5h74c5.333 0 10.166-2.167 14.499-6.5s6.5-9.166 6.5-14.499v-74zM650 275.669c0-6-2-11-6-15s-9-6-15-6h-73c-6 0-11 2-15 6s-6 9-6 15v74c0 5.333 2 10.166 6 14.499s9 6.5 15 6.5h73c6 0 11-2.167 15-6.5s6-9.166 6-14.499v-74zM650 433.669c0-6-2-11-6-15s-9-6-15-6h-73c-6 0-11 2-15 6s-6 9-6 15v74c0 5.333 2 10.166 6 14.499s9 6.5 15 6.5h73c6 0 11-2.167 15-6.5s6-9.166 6-14.499v-74z" />
<glyph unicode="&#x22;" glyph-name="quotedbl" data-tags="quotedbl" d="M713 555.667c-4.667-5.333-8.832-10.999-12.499-16.999s-6.834-12-9.501-18h-358c-2.667 6-6 12-10 18s-8.333 11.667-13 17h-35c-7.333 0-14.666 0.667-21.999 2s-14 3.666-20 6.999h-10v-33c0-7.333 2-15 6-23s8-13.667 12-17c3.333-3.333 8.166-6.333 14.499-9s12.833-4 19.5-4h474c14.667 0 26.834 5.333 36.501 16s14.5 23 14.5 37v44c-6-6-13.333-10.833-22-14.5s-18.334-5.5-29.001-5.5h-36zM749.002 886.668l-473.999-0.001c-14.667 0-27-5-37-15s-15-22-15-36v-204c0-7.333 2-14.833 6-22.5s8-13.167 12-16.5c3.333-3.333 8.166-6.166 14.499-8.499s12.833-3.5 19.5-3.5h474c14.667 0 26.834 5 36.501 15s14.5 22 14.5 36v204c0 14-4.833 26-14.5 36s-21.834 15-36.501 15v0zM765.003 692.667l-2.002-0.001c-15.333-6.667-29.666-16.334-42.999-29.001s-23-28.667-29-48h-358c-6.667 19.333-16.667 34.833-30 46.5s-27.333 20.5-42 26.5v90c14.667 5.333 28.667 13.833 42 25.5s23.333 25.5 30 41.5h358c6.667-17.333 16.334-31.666 29.001-42.999s27.667-19.666 45-24.999v-85zM515.001 823.666c-22.667 0-41.834-8.833-57.501-26.5s-23.5-38.834-23.5-63.501 7.833-45.834 23.5-63.501 34.834-26.5 57.501-26.5c22 0 41 8.833 57 26.5s24 38.834 24 63.501-8 45.834-24 63.501-35 26.5-57 26.5v0zM713.001 456.666c-4.667-4.667-8.832-10.666-12.499-17.999s-6.834-14.333-9.501-21h-358c-2.667 6.667-6 13.667-10 21s-8.333 13.333-13 18h-35c-7.333 0-14.666 1.333-21.999 4s-14 5.667-20 9h-10v-38c0-8 2-15.833 6-23.5s8-13.167 12-16.5c3.333-2.667 8.166-5.334 14.499-8.001s12.833-4 19.5-4h474c14.667 0 26.834 5.167 36.501 15.5s14.5 22.5 14.5 36.5v44c-6-6.667-13.333-11.5-22-14.5s-18.334-4.5-29.001-4.5h-36zM895.003 219.667c-32-18-69.164-34.505-111.497-49.505s-85.5-25.833-129.5-32.5c-20-3.333-42.833-4.166-68.5-2.499s-50.334 5.167-74.001 10.5-43.5 11.833-59.5 19.5-24 15.834-24 24.501c0 6.667 24.833 3.834 74.5-8.499s94.167-13.5 133.5-3.5c30 8 44.667 22.333 44 43s-9.334 33-26.001 37c-8 2-24.5 7-49.5 15l-84 26c-31 9.333-62 17.833-93 25.5s-56.5 11.834-76.5 12.501c-19.333 0.667-48.333-1.666-87-6.999s-69.334-10-92.001-14c-8-1.333-30-7.833-66-19.5s-54.333-21.167-55-28.5c-1.333-17.333 2.167-37 10.5-59s17.5-44.333 27.5-67 19.167-45.167 27.5-67.5 11.833-42.833 10.5-61.5c0-0.667 1.167-4 3.5-10s7.833-5.333 16.5 2c9.333 8 20.333 15.5 33 22.5s25 9.167 37 6.5c10-2.667 35.333-7.667 76-15s84.667-14.833 132-22.5 92-14 134-19 68.667-6.167 80-3.5c16.667 4 39.5 13 68.5 27s58.333 29.5 88 46.5 57.167 33.667 82.5 50 42.333 28.833 51 37.5c28 27.333 35.167 51.5 21.5 72.5s-32.167 25.167-55.5 12.5v0z" />
<glyph unicode="&#x23;" glyph-name="numbersign" data-tags="numbersign" d="M925 532.667h-2l-94 219c-3.333 8-8.333 14-15 18s-14 6-22 6h-567c-8 0-15.5-2-22.5-6s-12.167-10-15.5-18l-93-219h-2c-11.333 0-21-4-29-12s-12-17.667-12-29v-252c0-11.333 4-21.166 12-29.499s17.667-12.5 29-12.5h16v-77c0-11.333 3.833-21 11.5-29s17.167-12 28.5-12h98c11.333 0 21.5 4 30.5 12s13.5 17.667 13.5 29v77h443v-77c0-11.333 3.333-21 10-29s15.667-12 27-12h99c11.333 0 21.333 4 30 12s13 17.667 13 29v77h13c11.333 0 21.5 4.167 30.5 12.5s13.5 18.166 13.5 29.499v252c0 11.333-4.5 21-13.5 29s-19.167 12-30.5 12v0zM227 325.667h-87c-8 0-15 5.333-21 16s-9 22.334-9 35.001 3 24.334 9 35.001 13 16 21 16h87c8 0 15-5.333 21-16s9-22.334 9-35.001-3-24.334-9-35.001-13-16-21-16v0zM620 341.667h-223c-21.333 0-39.666 4-54.999 12s-23 16.667-23 26 7.667 18 23 26 33.666 12 54.999 12h223c21.333 0 39.666-4 54.999-12s23-16.667 23-26-7.667-18-23-26-33.666-12-54.999-12v0zM878 325.667h-86c-8.667 0-15.834 5.333-21.501 16s-8.5 22.334-8.5 35.001 2.833 24.334 8.5 35.001 12.834 16 21.501 16h86c8.667 0 15.834-5.333 21.501-16s8.5-22.334 8.5-35.001-2.833-24.334-8.5-35.001-12.834-16-21.501-16v0z" />
<glyph unicode="&#x24;" glyph-name="dollar" data-tags="dollar" d="M406 673.667c0 3.333 0.17 6.501 0.503 9.501s0.833 6.167 1.5 9.5h-194c-0.667 0-1.334 0.167-2.001 0.5s-1.334 0.5-2.001 0.5h-4c-0.667-0.667-1.334-1-2.001-1s-1-0.333-1-1h-1c0-0.667-0.333-1.167-1-1.5l-1-0.5-1.5-1.5c-0.333-0.333-0.5-0.833-0.5-1.5h-1v-1l-0.5-1c-0.333-0.667-0.833-1-1.5-1v-1l-134-300c-1.333-2-2.333-4-3-6s-1-4-1-6c0-43.333 15.333-80.333 46-111s67.667-46 111-46 80.333 15.333 111 46 46 67.667 46 111c0 2-0.333 4-1 6s-1.667 3.667-3 5l-122 273h163c-0.667 2.667-1.167 5.667-1.5 9s-0.5 6.666-0.5 9.999v0zM319.003 389.668h-210l105 234 105-234zM963.003 383.668l-133.997 298.999v1l-0.5 1c-0.333 0.667-0.833 1-1.5 1v1c-0.667 0.667-1 1.167-1 1.5s-0.333 0.5-1 0.5v0.5c0 0.333-0.333 0.5-1 0.5l-2 2c-0.667 0.667-1.334 1.167-2.001 1.5l-1 0.5h-1c-0.667 0-1.167 0.167-1.5 0.5s-0.833 0.5-1.5 0.5l-1-1c-0.667 0-1.334-0.167-2.001-0.5s-1.334-0.5-2.001-0.5h-193c0.667-3.333 1.167-6.5 1.5-9.5s0.5-6.167 0.5-9.5-0.167-6.666-0.5-9.999-0.833-6.333-1.5-9h162l-123-276h-1v-2c0-0.667-0.333-1-1-1v-5c0-43.333 15.333-80.333 46-111s67.667-46 111-46 80.333 15.333 111 46 46 67.667 46 111c0 2.667-0.5 5-1.5 7s-2.167 4-3.5 6v0zM705.006 389.667l105 234 106-234h-211zM511.006 740.667c-26.667 0-49.667-6.333-69-19s-29-28-29-46 9.667-33.333 29-46 42.333-19 69-19c27.333 0 50.666 6.333 69.999 19s29 28 29 46-9.667 33.333-29 46-42.666 19-69.999 19v0zM511.006 644.667c-8.667 0-16.167 3-22.5 9s-9.5 13.333-9.5 22 3.167 16 9.5 22 13.833 9 22.5 9c9.333 0 17.166-3 23.499-9s9.5-13.333 9.5-22-3.167-16-9.5-22-14.166-9-23.499-9v0z" />
<glyph unicode="&#x25;" glyph-name="percent" data-tags="percent" d="M880 764.667l-235 68.999c-2.667 0.667-5.167 0.334-7.5-0.999s-3.5-3.333-3.5-6v-42c0-2-1-3.5-3-4.5s-4-1.5-6-1.5h-458c-2.667 0-4.667-1-6-3s-2-4-2-6v-25c0-2 0.667-3.833 2-5.5s3.333-2.5 6-2.5h458c2 0 4-0.667 6-2s3-3 3-5v-41c0-2.667 1.167-4.834 3.5-6.501s4.833-2.167 7.5-1.5l236 70c3.333 0.667 5 2.834 5 6.501s-2 6.167-6 7.5v0zM872 114.666l-458 0.004c-2.667 0-4.834 0.667-6.501 2s-2.5 3-2.5 5v45c0 3.333-1.167 5.666-3.5 6.999s-4.833 1.666-7.5 0.999l-236-75c-4-1.333-6-3.833-6-7.5s2-6.167 6-7.5l236-75c2.667-0.667 5.167-0.334 7.5 0.999s3.5 3.666 3.5 6.999v45c0 2 0.833 3.833 2.5 5.5s3.834 2.5 6.501 2.5h458c2 0 3.833 0.833 5.5 2.5s2.5 3.5 2.5 5.5v27c0 2-0.833 4-2.5 6s-3.5 3-5.5 3v0zM884 658.67l-746.001-0.002c-23.333 0-43.166-7.333-59.499-22s-24.5-32.334-24.5-53.001v-303c0-11.333 3.333-22.666 10-33.999s13.334-19.666 20.001-24.999c5.333-4 13.166-7.833 23.499-11.5s20.5-5.5 30.5-5.5h746c23.333 0 43.166 7.5 59.499 22.5s24.5 32.833 24.5 53.5v303c0 20.667-8.167 38.334-24.5 53.001s-36.166 22-59.499 22v0zM905.999 365.668c-24.667-8-47.333-20.835-68-38.502s-36-39.5-46-65.5h-563c-10.667 24.667-26.167 46-46.5 64s-42.5 31-66.5 39v135c24 8 46.167 20.667 66.5 38s35.833 39 46.5 65h564c10-27.333 25-49.666 45-66.999s42.667-29.666 68-36.999v-133zM511 566.666c-28.667 0-53.167-13.167-73.5-39.5s-30.5-57.833-30.5-94.5c0-37.333 10.167-69 30.5-95s44.833-39 73.5-39 53.167 13 73.5 39 30.5 57.667 30.5 95c0 36.667-10.167 68.167-30.5 94.5s-44.833 39.5-73.5 39.5v0z" />
<glyph unicode="&#x26;" glyph-name="ampersand" data-tags="ampersand" d="M103 807.667l453-0.002c2 0 3.833-1 5.5-3s2.5-4 2.5-6v-41c0-2.667 1.167-4.667 3.5-6s4.833-1.666 7.5-0.999l234 68c3.333 1.333 5 3.833 5 7.5s-1.667 6.167-5 7.5l-234 68c-2.667 0.667-5.167 0.334-7.5-0.999s-3.5-3.333-3.5-6v-41c0-2-0.833-4.333-2.5-7s-3.5-4-5.5-4h-453c-2.667 0-4.667-0.167-6-0.5s-2-1.5-2-3.5v-25c0-2 0.667-3.5 2-4.5s3.333-1.5 6-1.5v0zM471 371.665c32 0 59.167 12.5 81.5 37.5s33.5 55.167 33.5 90.5-11.167 65.5-33.5 90.5-49.5 37.5-81.5 37.5-59.167-12.5-81.5-37.5-33.5-55.167-33.5-90.5 11.167-65.5 33.5-90.5 49.5-37.5 81.5-37.5v0zM213 79.665c-4 12.667-8.833 23.332-14.5 31.999s-12.167 16.334-19.5 23.001h-49c-10.667 0-21 1.333-31 4s-19.667 8.667-29 18h-16v-55c0-10.667 3-21.5 9-32.5s12-18.833 18-23.5c5.333-4 12.5-7.833 21.5-11.5s18.167-5.5 27.5-5.5h506c-6 10-10.333 19.5-13 28.5s-6 16.5-10 22.5h-400zM814 315.663c-50.667 0-93.834-18-129.501-54s-53.5-79.333-53.5-130 17.833-93.834 53.5-129.501 78.834-53.5 129.501-53.5 94 17.833 130 53.5 54 78.834 54 129.501-18 94-54 130-79.333 54-130 54v0zM814-5.337c-37.333 0-69.5 13.333-96.5 40s-40.5 59-40.5 97 13.5 70.5 40.5 97.5 59.167 40.5 96.5 40.5c38 0 70.5-13.5 97.5-40.5s40.5-59.5 40.5-97.5-13.5-70.333-40.5-97-59.5-40-97.5-40v0zM814 248.663h-23v-140h140v23c0 32-11.5 59.5-34.5 82.5s-50.5 34.5-82.5 34.5v0zM82 173.663c4.667-4 11.832-7.333 21.499-10s19.167-4 28.5-4h483c0.667 8 2 16 4 24s4.667 16 8 24h-410c-4 11.333-9 20.833-15 28.5l-19 25.5h-51c-10.667 0-21.167 1.5-31.5 4.5s-20.166 6.833-29.499 11.5h-17v-49c0-11.333 3.167-22 9.5-32s12.5-17.667 18.5-23v0zM80.998 299.663c5.333-4 12.669-7.502 22.002-10.502s18.666-4.5 27.999-4.5h545c18.667 15.333 39.667 27.5 63 36.5s48.333 13.5 75 13.5c10.667 0 21.167-0.833 31.5-2.5s20.5-4.167 30.5-7.5c2.667 4.667 4.5 9.5 5.5 14.5s1.5 10.5 1.5 16.5v289c0 20-7.333 36.667-22 50s-32.334 20-53.001 20h-677c-21.333 0-39.5-6.667-54.5-20s-22.5-30-22.5-50v-289c0-11.333 3-22.166 9-32.499s12-18.166 18-23.499v0zM111.001 563.661c25.333 8 46.335 20.165 63.002 36.498s29.667 36.5 39 60.5h512c9.333-25.333 23-46.166 41-62.499s39-28.166 63-35.499v-129h-1c-22.667-6-43.334-17.167-62.001-33.5s-32.334-37.833-41.001-64.5h-512c-9.333 23.333-23 43.833-41 61.5s-38.333 30.5-61 38.5v128z" />
<glyph unicode="&#x27;" glyph-name="quotesingle" data-tags="quotesingle" d="M956 765.667l-890.003-0.001c-14 0-26-5-36-15s-15-22-15-36v-398c0-14 5-26.167 15-36.5s22-15.5 36-15.5h117c-4.667 14.667-5.834 28.5-3.501 41.5s7.833 25.833 16.5 38.5h-129c-3.333 0-6.333 1.167-9 3.5s-4 5.166-4 8.499v13c0 4 1.333 7.167 4 9.5s5.667 3.5 9 3.5h261v35h-261c-3.333 0-6.333 2-9 6s-4 7.667-4 11v13c0 4 1.333 7.5 4 10.5s5.667 4.5 9 4.5h261v164c0 22.667 7.833 41.5 23.5 56.5s34.834 22.5 57.501 22.5h10c22.667 0 41.834-7.5 57.501-22.5s23.5-33.833 23.5-56.5v-138c2 0 3.833 0.5 5.5 1.5s3.5 1.5 5.5 1.5h11c12 0 23.333-2.667 34-8s19.667-12.333 27-21l8-12c2.667 0 6.5 0.667 11.5 2s12.167 1.666 21.5 0.999c8.667 0 17.334-1.5 26.001-4.5s16.334-7.167 23.001-12.5v58c0 3.333 1 6.333 3 9s4.667 4 8 4h251c3.333 0 6.666-1.333 9.999-4s5-5.667 5-9v-60c0-3.333-1.667-7-5-11s-6.666-6-9.999-6h-249c2-1.333 4-3.5 6-6.5s3.667-6.167 5-9.5c2.667 0.667 5.5 1.5 8.5 2.5s5.833 1.5 8.5 1.5h11c10.667 0 21-2.167 31-6.5s18.667-9.833 26-16.5h153c3.333 0 6.666-1.167 9.999-3.5s5-5.5 5-9.5v-13c0-3.333-1.667-6.166-5-8.499s-6.666-3.5-9.999-3.5h-130c0.667-3.333 1.167-6.666 1.5-9.999s0.5-6.666 0.5-9.999v-60h149c14 0 25.5 5.167 34.5 15.5s13.5 22.5 13.5 36.5v398c0 14-4.5 26-13.5 36s-20.5 15-34.5 15v0zM119.997 599.666c-18 0-33.5 6.5-46.5 19.5s-19.5 28.833-19.5 47.5c0 18 6.5 33.5 19.5 46.5s28.5 19.5 46.5 19.5c18.667 0 34.334-6.5 47.001-19.5s19-28.5 19-46.5c0-18.667-6.333-34.5-19-47.5s-28.334-19.5-47.001-19.5v0zM649.997 657.666c0-3.333-1.167-6.333-3.5-9s-5.5-4-9.5-4h-28c-3.333 0-6.333 1.333-9 4s-4 5.667-4 9v12c0 4 1.333 7.167 4 9.5s5.667 3.5 9 3.5h28c4 0 7.167-1.167 9.5-3.5s3.5-5.5 3.5-9.5v-12zM729.997 657.666c0-3.333-1.333-6.333-4-9s-5.667-4-9-4h-28c-4 0-7.167 1.333-9.5 4s-3.5 5.667-3.5 9v12c0 4 1.167 7.167 3.5 9.5s5.5 3.5 9.5 3.5h28c3.333 0 6.333-1.167 9-3.5s4-5.5 4-9.5v-12zM796.997 657.666c0-3.333-1.333-6.333-4-9s-5.667-4-9-4h-28c-4 0-7.167 1.333-9.5 4s-3.5 5.667-3.5 9v12c0 4 1.167 7.167 3.5 9.5s5.5 3.5 9.5 3.5h28c3.333 0 6.333-1.167 9-3.5s4-5.5 4-9.5v-12zM879.997 657.666c0-3.333-1.333-6.333-4-9s-5.667-4-9-4h-28c-4 0-7.167 1.333-9.5 4s-3.5 5.667-3.5 9v12c0 4 1.167 7.167 3.5 9.5s5.5 3.5 9.5 3.5h28c3.333 0 6.333-1.167 9-3.5s4-5.5 4-9.5v-12zM949.997 657.666c0-3.333-1.333-6.333-4-9s-5.667-4-9-4h-28c-4 0-7.167 1.333-9.5 4s-3.5 5.667-3.5 9v12c0 4 1.167 7.167 3.5 9.5s5.5 3.5 9.5 3.5h28c3.333 0 6.333-1.167 9-3.5s4-5.5 4-9.5v-12zM718.997 387.666c-6.667 0-12.832-0.83-18.499-2.497s-10.834-3.834-15.501-6.501c-3.333 16-11.333 29.333-24 40s-27.334 16-44.001 16c-6.667 0-13.167-1-19.5-3s-12.166-4.667-17.499-8c-4.667 12.667-13.167 23.167-25.5 31.5s-25.5 12.5-39.5 12.5c-6.667 0-12.5-0.833-17.5-2.5s-11.5-4.167-19.5-7.5v160c0 19.333-6.5 35.666-19.5 48.999s-28.833 20-47.5 20-34.5-6.667-47.5-20-19.5-29.666-19.5-48.999v-309l-24 27c-12.667 14-28.5 21.667-47.5 23s-35.5-4.334-49.5-17.001-21.5-28.5-22.5-47.5 4.5-35.5 16.5-49.5l150-168c15.333-14.667 34.666-27.834 57.999-39.501s46-17.5 68-17.5h147c40.667 0 75.334 12.833 104.001 38.5s43 56.5 43 92.5v169c0 18.667-6.667 34.667-20 48s-29.333 20-48 20v0z" />
<glyph unicode="&#x28;" glyph-name="parenleft" data-tags="parenleft" d="M768 813.667c-5.333 13.333-13.833 22.5-25.5 27.5s-23.167 4.167-34.5-2.5l-284-170h43l318 105-17 40zM927 730.667c-2.667 12-8.168 21.667-16.501 29s-17.166 11-26.499 11c-2 0-4-0.167-6-0.5s-4-0.833-6-1.5l-303-100h372l-14 62zM944.999 650.667l-529.006-1c-15.333 0-28.5-5.667-39.5-17s-16.5-25.333-16.5-42v-27c-4.667 2.667-10.5 4.834-17.5 6.501s-15.167 2.5-24.5 2.5c-10.667 0-20-1-28-3s-12.667-3-14-3c-2-0.667-3.833-1.667-5.5-3s-3.5-2.666-5.5-3.999l-233-196c-3.333-3.333-5.833-7.166-7.5-11.499s-2.5-8.833-2.5-13.5l34-307c0-8 3.667-15 11-21s14.666-9.333 21.999-10c0.667 0 16.334-0.5 47.001-1.5s62.667-1.5 96-1.5c20 0 37.167 0.167 51.5 0.5s26.166 1.166 35.499 2.499c26 4 45.5 9.5 58.5 16.5s22.167 13.167 27.5 18.5l14 12c4.667 4 9.334 7.667 14.001 11-4-14.667-3-29.5 3-44.5s15.667-26.167 29-33.5c4.667-2.667 9.334-4.667 14.001-6s9.334-2 14.001-2c8.667 0 18.834 6.5 30.501 19.5s23.167 27.5 34.5 43.5c-1.333-6.667-1.166-13.334 0.501-20.001s5.834-12.334 12.501-17.001c3.333-2 7.833-3.667 13.5-5s10.834-2 15.501-2c12 0 23 3.333 33 10s17.667 15.667 23 27l76 130h213c14.667 0 27.5 5.833 38.5 17.5s16.5 25.5 16.5 41.5v373c0 16-5.333 30-16 42s-23.667 18-39 18v0zM597.993 98.667v1.5c0 0.333 0.333 0.5 1 0.5l-0.5-0.5c-0.333-0.333-0.5-0.833-0.5-1.5v0zM962.993 218.667c0-6-1.829-10.833-5.496-14.5s-7.834-5.5-12.501-5.5h-373c15.333 20 27.333 39.167 36 57.5s13.667 35.166 15 50.499c1.333 12.667 0.666 23-2.001 31s-5.334 14-8.001 18c-2.667 6.667-8.334 13.334-17.001 20.001s-21.334 10-38.001 10c-21.333 0-47.166-6-77.499-18s-56.833-23.667-79.5-35v88h562v-202zM400.997 537.667l-0.001 53c0 5.333 1.667 10 5 14s7.333 6 12 6h528c4.667 0 8.834-2 12.501-6s5.5-8.667 5.5-14v-53h-563z" />
<glyph unicode="&#x29;" glyph-name="parenright" data-tags="parenright" d="M929 739.667l-518.002-0.002c-14.667 0-27.334-5.667-38.001-17s-16-25-16-41v-27c-4.667 2.667-10.667 4.834-18 6.501s-15.333 2.5-24 2.5c-10.667 0-20-0.833-28-2.5s-12.667-2.834-14-3.501c-2-0.667-3.833-1.5-5.5-2.5s-3.5-2.5-5.5-4.5l-229-192c-3.333-3.333-5.833-7.166-7.5-11.499s-2.5-8.833-2.5-13.5l33-301c0.667-8 4.5-15 11.5-21s14.5-9 22.5-9l45-2c30-1.333 61.333-2 94-2 20 0 37 0.333 51 1s25.667 1.667 35 3c26 3.333 45.333 8.5 58 15.5s21.334 13.167 26.001 18.5c2 1.333 3.833 2.833 5.5 4.5l4.5 4.5c0 4-0.167 8-0.5 12s-0.5 8-0.5 12c0 31.333 5.167 61 15.5 89s24.666 53.333 42.999 76 40 42 65 58 51.833 27.667 80.5 35c-0.667 5.333-1.834 10-3.501 14s-3.167 7-4.5 9c-3.333 6.667-8.666 13.334-15.999 20.001s-19.333 10-36 10c-21.333 0-46.5-6-75.5-18s-54.167-23.667-75.5-35v87h552v-199c0-5.333-2.167-9.833-6.5-13.5s-9.166-5.5-14.499-5.5l-25 2c3.333-6 6.333-12.5 9-19.5s5-12.833 7-17.5h6c14.667 0 27.334 5.333 38.001 16s16 24 16 40v365c0 16-5.167 29.5-15.5 40.5s-23.166 16.5-38.499 16.5v0zM947.998 629.665h-553.001v52c0 5.333 1.667 9.833 5 13.5s7.333 5.5 12 5.5l518 1c4.667 0 8.834-2 12.501-6s5.5-8.667 5.5-14v-52zM672.997 402.665c-32 0-62.167-6-90.5-18s-53-28.667-74-50-37.667-46.166-50-74.499-18.5-58.5-18.5-90.5 6.167-62.167 18.5-90.5 29-53 50-74 45.667-37.667 74-50 58.5-18.5 90.5-18.5c32.667 0 63.167 6.167 91.5 18.5s53 29 74 50 37.5 45.667 49.5 74 18 58.5 18 90.5-6 62.167-18 90.5-28.5 53.166-49.5 74.499-45.667 38-74 50-58.833 18-91.5 18v0zM675.997-31.335l-0.002 55c-40 0-74.5 14.333-103.5 43s-43.5 63-43.5 103c0 14.667 1.833 28.5 5.5 41.5s8.834 25.5 15.501 37.5l27-28c-4-7.333-7-15.333-9-24s-3-17.667-3-27c0-30 10.833-55.667 32.5-77s47.834-32 78.501-32v54l73-73-73-73zM796.995 91.665l-26.998 27c4 7.333 7.333 15.333 10 24s4 17.667 4 27c0 30-10.833 55.833-32.5 77.5s-46.834 32.5-75.501 32.5v-55l-73 73 73 73v-55c41.333 0 75.833-14.333 103.5-43s41.5-63 41.5-103c0-14.667-2.333-28.5-7-41.5s-10.334-25.167-17.001-36.5v0z" />
<glyph unicode="&#x2a;" glyph-name="asterisk" data-tags="asterisk" d="M937 736.667h-527.003c-15.333 0-28.5-5.833-39.5-17.5s-16.5-25.5-16.5-41.5v-27c-5.333 2.667-11.333 4.667-18 6s-14.667 2-24 2c-10.667 0-20-0.833-28-2.5s-12.333-2.834-13-3.501c-2.667-0.667-4.834-1.5-6.501-2.5s-3.167-2.167-4.5-3.5l-233-196c-3.333-3.333-5.833-7.166-7.5-11.499s-2.5-8.833-2.5-13.5l34-305c0-8.667 3.667-16 11-22s15-9 23-9l46-2c30.667-1.333 62.334-2 95.001-2 20 0 37.167 0.333 51.5 1s26.166 1.667 35.499 3c26.667 3.333 46.334 8.666 59.001 15.999s21.667 13.666 27 18.999l28 23c-4-15.333-3-30.333 3-45s15.667-25.667 29-33c4-2.667 8.5-4.667 13.5-6s9.833-2 14.5-2c8 0 18 6.5 30 19.5s23.667 27.5 35 43.5c-2-7.333-2.167-14.166-0.5-20.499s6.167-11.833 13.5-16.5c2.667-2 6.834-3.667 12.501-5s10.834-2 15.501-2c12 0 23 3.333 33 10s17.667 15.667 23 27l76 130h212c14.667 0 27.334 5.667 38.001 17s16 25 16 41l1 371c0 16.667-5.333 30.834-16 42.501s-23.667 17.5-39 17.5v0zM590.997 187.667l0.5 0.5c0.333 0.333 0.5 0.833 0.5 1.5 0-0.667-0.167-1.167-0.5-1.5l-0.5-0.5zM955.997 306.667c0-6-1.828-10.832-5.495-14.499s-7.834-5.5-12.501-5.5h-372c15.333 20 27.166 39.167 35.499 57.5s13.166 35.166 14.499 50.499c1.333 12.667 0.666 23-2.001 31s-5 14-7 18c-3.333 6-9.333 12.333-18 19s-21.334 10-38.001 10c-21.333 0-47-6-77-18s-56.333-23.667-79-35v88h561v-201zM955.002 624.668h-563.001v53c0 5.333 1.833 9.833 5.5 13.5s8.167 5.5 13.5 5.5l526 1c4.667 0 8.834-2 12.501-6s5.5-8.667 5.5-14v-53z" />
<glyph unicode="&#x2b;" glyph-name="plus" data-tags="plus" d="M813 705.667c0 47.333-16.669 87.666-50.002 120.999s-73.666 50-120.999 50-87.666-16.667-120.999-50-50-73.666-50-120.999c0-40.667 8.833-83 26.5-127s37.167-84.333 58.5-121 41-67 59-91l27-36 26.5 36c17.667 24 37.167 54.333 58.5 91s41 77 59 121 27 86.333 27 127v0zM549.998 703.667c0 25.333 9 47 27 65s39.667 27 65 27 47-9 65-27 27-39.667 27-65-9-47-27-65-39.667-27-65-27-47 9-65 27-27 39.667-27 65v0zM894.998 784.667h-9l-36-15c2.667-9.333 4.667-19 6-29s2-20 2-30c0-47.333-11-96.666-33-147.999s-46.167-98.333-72.5-141-50.5-78-72.5-106l-33-42v-167l-268 88v503l60-20c-0.667 5.333-1.167 10.666-1.5 15.999s-0.5 10.666-0.5 15.999c0 8.667 0.667 17.334 2 26.001s3 17 5 25l-66 21-252-80c-4-2-8-4.5-12-7.5s-6-7.5-6-13.5v-637c0-6.667 2.167-11.834 6.5-15.501s9.833-5.5 16.5-5.5h9l238 88 270-88 252 80c4 2 8 4.833 12 8.5s6 7.834 6 12.501v637c0 6-2.167 11.5-6.5 16.5s-9.833 7.5-16.5 7.5v0z" />
<glyph unicode="&#x2c;" glyph-name="comma" data-tags="comma" d="M718 886.667h-398c-13.333 0-24.833-4-34.5-12s-14.5-18.333-14.5-31v-830c0-12.667 4.833-23.834 14.5-33.501s21.167-14.5 34.5-14.5h398c13.333 0 24.5 4.833 33.5 14.5s13.5 20.834 13.5 33.501v830c0 12.667-4.5 23-13.5 31s-20.167 12-33.5 12v0zM452 820.667c0 3.333 0.667 6.166 2 8.499s3.666 3.5 6.999 3.5h116c3.333 0 6.333-1.167 9-3.5s4-5.166 4-8.499v-1c0-3.333-1.333-6.166-4-8.499s-5.667-3.5-9-3.5h-116c-3.333 0-5.666 1.167-6.999 3.5s-2 5.166-2 8.499v1zM518-2.333c-12.667 0-23.5 4.5-32.5 13.5s-13.5 19.833-13.5 32.5 4.5 23.334 13.5 32.001 19.833 13 32.5 13c12 0 22.5-4.333 31.5-13s13.5-19.334 13.5-32.001-4.5-23.5-13.5-32.5-19.5-13.5-31.5-13.5v0zM733 126.667c0-3.333-1.167-6.166-3.5-8.499s-5.166-3.5-8.499-3.5h-406c-3.333 0-6.166 1.167-8.499 3.5s-3.5 5.166-3.5 8.499v611c0 3.333 1.167 6.166 3.5 8.499s5.166 3.5 8.499 3.5h406c3.333 0 6.166-1.167 8.499-3.5s3.5-5.166 3.5-8.499v-611z" />
<glyph unicode="&#x2d;" glyph-name="hyphen" data-tags="hyphen" d="M968 714.667c0 16-4.331 30-12.998 42s-19.334 18-32.001 18h-821c-12.667 0-23.334-6-32.001-18s-13-26-13-42v-81h911v81zM743.002 494.667h-686.001v-365c0-14.667 4.333-27.167 13-37.5s19.334-15.5 32.001-15.5h821c12.667 0 23.5 5.167 32.5 15.5s13.5 22.833 13.5 37.5v365h-226zM715.001 139.667c-22.667 0-42.167 8.167-58.5 24.5s-24.5 35.833-24.5 58.5c0 23.333 8.167 43 24.5 59s35.833 24 58.5 24c23.333 0 43-8 59-24s24-35.667 24-59c0-22.667-8-42.167-24-58.5s-35.667-24.5-59-24.5v0zM812.001 139.667c-3.333 0-6.665 0.333-9.998 1l-10 2c12 9.333 21.667 21 29 35s11 29 11 45c0 16.667-3.667 32-11 46s-17 25.667-29 35c3.333 0.667 6.666 1.167 9.999 1.5s6.666 0.5 9.999 0.5c22.667 0 42.167-8 58.5-24s24.5-35.667 24.5-59c0-22.667-8.167-42.167-24.5-58.5s-35.833-24.5-58.5-24.5v0z" />
<glyph unicode="&#x2e;" glyph-name="period" data-tags="period" d="M288 834.667c-20.667 0-38.334-7.333-53.001-22s-22-32.334-22-53.001 7.333-38.334 22-53.001 32.334-22 53.001-22 38.334 7.333 53.001 22 22 32.334 22 53.001-7.333 38.334-22 53.001-32.334 22-53.001 22v0zM288 609.667c-20.667 0-38.334-7.333-53.001-22s-22-32.334-22-53.001 7.333-38.334 22-53.001 32.334-22 53.001-22 38.334 7.333 53.001 22 22 32.334 22 53.001-7.333 38.334-22 53.001-32.334 22-53.001 22v0zM513 160.667c-20.667 0-38.334-7.5-53.001-22.5s-22-32.5-22-52.5c0-20.667 7.333-38.334 22-53.001s32.334-22 53.001-22c20 0 37.5 7.333 52.5 22s22.5 32.334 22.5 53.001c0 20-7.5 37.5-22.5 52.5s-32.5 22.5-52.5 22.5v0zM737 684.667c20.667 0 38.334 7.333 53.001 22s22 32.334 22 53.001-7.333 38.334-22 53.001-32.334 22-53.001 22c-20 0-37.5-7.333-52.5-22s-22.5-32.334-22.5-53.001 7.5-38.334 22.5-53.001 32.5-22 52.5-22v0zM288 384.667c-20.667 0-38.334-7.333-53.001-22s-22-32.334-22-53.001c0-20 7.333-37.333 22-52s32.334-22 53.001-22 38.334 7.333 53.001 22 22 32 22 52c0 20.667-7.333 38.334-22 53.001s-32.334 22-53.001 22v0zM737 609.667c-20 0-37.5-7.333-52.5-22s-22.5-32.334-22.5-53.001 7.5-38.334 22.5-53.001 32.5-22 52.5-22c20.667 0 38.334 7.333 53.001 22s22 32.334 22 53.001-7.333 38.334-22 53.001-32.334 22-53.001 22v0zM737 384.667c-20 0-37.5-7.333-52.5-22s-22.5-32.334-22.5-53.001c0-20 7.5-37.333 22.5-52s32.5-22 52.5-22c20.667 0 38.334 7.333 53.001 22s22 32 22 52c0 20.667-7.333 38.334-22 53.001s-32.334 22-53.001 22v0zM513 384.667c-20.667 0-38.334-7.333-53.001-22s-22-32.334-22-53.001c0-20 7.333-37.333 22-52s32.334-22 53.001-22c20 0 37.5 7.333 52.5 22s22.5 32 22.5 52c0 20.667-7.5 38.334-22.5 53.001s-32.5 22-52.5 22v0zM513 834.667c-20.667 0-38.334-7.333-53.001-22s-22-32.334-22-53.001 7.333-38.334 22-53.001 32.334-22 53.001-22c20 0 37.5 7.333 52.5 22s22.5 32.334 22.5 53.001-7.5 38.334-22.5 53.001-32.5 22-52.5 22v0zM513 609.667c-20.667 0-38.334-7.333-53.001-22s-22-32.334-22-53.001 7.333-38.334 22-53.001 32.334-22 53.001-22c20 0 37.5 7.333 52.5 22s22.5 32.334 22.5 53.001-7.5 38.334-22.5 53.001-32.5 22-52.5 22v0z" />
<glyph unicode="&#x2f;" glyph-name="slash" data-tags="slash" d="M773 561.667h-43.001v77c0 26.667-5.5 51.834-16.5 75.501s-26.167 44.334-45.5 62.001-42 31.5-68 41.5-54.333 15-85 15-59.167-5-85.5-15-49.166-23.833-68.499-41.5-34.5-38.334-45.5-62.001-16.5-48.834-16.5-75.501v-77h-49c-24 0-44.167-7.833-60.5-23.5s-24.5-34.167-24.5-55.5v-388c0-21.333 8.167-39.166 24.5-53.499s36.5-21.5 60.5-21.5h523c24 0 45.167 7.167 63.5 21.5s27.5 32.166 27.5 53.499v388c0 21.333-9.167 39.833-27.5 55.5s-39.5 23.5-63.5 23.5v0zM563.999 269.667l0.003-103.999c0-10-3.833-18.833-11.5-26.5s-16.834-11.5-27.501-11.5h-8c-10.667 0-19.834 3.833-27.501 11.5s-11.5 16.5-11.5 26.5v102c-12.667 7.333-23.167 17.666-31.5 30.999s-12.5 28.333-12.5 45c0 23.333 8.5 43.333 25.5 60s37.167 25 60.5 25c24 0 44.333-8.333 61-25s25-36.667 25-60c0-16-3.833-30.5-11.5-43.5s-17.834-23.167-30.501-30.5v0zM650.002 561.668h-271.001v77c0 32.667 13.333 60.834 40 84.501s58.667 35.5 96 35.5c36.667 0 68.334-11.833 95.001-35.5s40-51.834 40-84.501v-77z" />
<glyph unicode="&#x30;" glyph-name="zero" data-tags="zero" d="M905 447.667l-261 261c-3.333 3.333-6.833 5.666-10.5 6.999s-7.5 2-11.5 2-7.833-0.667-11.5-2-7.167-3.666-10.5-6.999c-2.667-2.667-4.834-5.834-6.501-9.501s-2.5-7.5-2.5-11.5v-139h-215c-4 0-7.833-0.833-11.5-2.5s-7.167-3.834-10.5-6.501c-2.667-3.333-4.834-6.666-6.501-9.999s-2.5-7.333-2.5-12v-184c0-4.667 0.833-8.667 2.5-12s3.834-6.666 6.501-9.999c3.333-3.333 6.833-5.666 10.5-6.999s7.5-2 11.5-2h215v-139c0-4 0.833-7.833 2.5-11.5s3.834-6.834 6.501-9.501c3.333-3.333 6.833-5.833 10.5-7.5s7.5-2.5 11.5-2.5 7.833 0.833 11.5 2.5 7.167 4.167 10.5 7.5l261 261c3.333 3.333 5.833 6.833 7.5 10.5s2.5 7.5 2.5 11.5-0.833 7.833-2.5 11.5-4.167 7.167-7.5 10.5v0zM251 747.667l246-0.001c4.667 0 8.667 1.333 12 4s5 6.334 5 11.001v51c0 4.667-1.667 8.667-5 12s-7.333 5-12 5h-328c-4.667 0-8.5-1.667-11.5-5s-4.5-7.333-4.5-12v-775c0-4.667 1.5-8.5 4.5-11.5s6.833-4.5 11.5-4.5h328c4.667 0 8.667 1.5 12 4.5s5 6.833 5 11.5v51c0 4.667-1.667 8.5-5 11.5s-7.333 4.5-12 4.5h-246c-4 0-7.5 1.5-10.5 4.5s-4.5 6.833-4.5 11.5v609c0 4.667 1.5 8.667 4.5 12s6.5 5 10.5 5v0z" />
<glyph unicode="&#x31;" glyph-name="one" data-tags="one" d="M909 229.667h-793c-2.667 0-4.667-0.833-6-2.5s-2-3.834-2-6.501v-92c0-2.667 0.667-5 2-7s3.333-3 6-3h793c2.667 0 4.834 1 6.501 3s2.5 4.333 2.5 7v92c0 2.667-0.833 4.834-2.5 6.501s-3.834 2.5-6.501 2.5v0zM909 491.667h-793c-2.667 0-4.667-1.167-6-3.5s-2-4.833-2-7.5v-92c0-2.667 0.667-5.334 2-8.001s3.333-4 6-4h793c2.667 0 4.834 1.333 6.501 4s2.5 5.334 2.5 8.001v92c0 2.667-0.833 5.167-2.5 7.5s-3.834 3.5-6.501 3.5v0zM909 743.667h-793c-2.667 0-4.667-1.167-6-3.5s-2-4.833-2-7.5v-92c0-3.333 0.667-6.166 2-8.499s3.333-3.5 6-3.5h793c2.667 0 4.834 1.167 6.501 3.5s2.5 5.166 2.5 8.499v92c0 2.667-0.833 5.167-2.5 7.5s-3.834 3.5-6.501 3.5v0z" />
<glyph unicode="&#x32;" glyph-name="two" data-tags="two" d="M594 358.667v132.999c0 4.667-1.5 8.334-4.5 11.001s-6.5 4-10.5 4h-133c-4 0-7.5-1.333-10.5-4s-4.5-6-4.5-10v-134c0-4 1.5-7.333 4.5-10s6.5-4 10.5-4h133c4 0 7.5 1.333 10.5 4s4.5 6 4.5 10v0zM918 358.666v132.999c0 4.667-1.333 8.334-4 11.001s-6 4-10 4h-134c-4 0-7.333-1.333-10-4s-4-6-4-10v-134c0-4 1.333-7.333 4-10s6-4 10-4h134c4 0 7.333 1.333 10 4s4 6 4 10v0zM269 358.665v132.999c0 4.667-1.333 8.334-4 11.001s-6 4-10 4h-133c-4.667 0-8.334-1.333-11.001-4s-4-6-4-10v-134c0-4 1.333-7.333 4-10s6.334-4 11.001-4h133c4 0 7.333 1.333 10 4s4 6 4 10v0z" />
<glyph unicode="&#x33;" glyph-name="three" data-tags="three" d="M444 348.667h133c4 0 7.5 1.5 10.5 4.5s4.5 6.5 4.5 10.5v133c0 4-1.5 7.333-4.5 10s-6.5 4-10.5 4h-133c-4 0-7.333-1.333-10-4s-4-6-4-10v-133c0-4 1.333-7.5 4-10.5s6-4.5 10-4.5v0zM444 24.667h133c4 0 7.5 1.5 10.5 4.5s4.5 6.5 4.5 10.5v133c0 4-1.5 7.333-4.5 10s-6.5 4-10.5 4h-133c-4 0-7.333-1.333-10-4s-4-6-4-10v-133c0-4 1.333-7.5 4-10.5s6-4.5 10-4.5v0zM444 672.667h133c4 0 7.5 1.5 10.5 4.5s4.5 6.5 4.5 10.5v133c0 4-1.5 7.333-4.5 10s-6.5 4-10.5 4h-133c-4 0-7.333-1.333-10-4s-4-6-4-10v-133c0-4 1.333-7.5 4-10.5s6-4.5 10-4.5v0z" />
<glyph unicode="&#x34;" glyph-name="four" data-tags="four" d="M523 829.667c-2.667 2.667-6.002 4-10.002 4s-7.333-1.333-10-4l-449-402v-40c0-4 1.333-7.333 4-10s6-4 10-4h86c4.667 0 8.334-1.5 11.001-4.5s4-6.833 4-11.5v-323c0-4 1.5-7.5 4.5-10.5s6.5-4.5 10.5-4.5h214c4 0 7.667 1.5 11 4.5s5 6.5 5 10.5v240c0 4 1.333 7.667 4 11s6 5 10 5h172c4.667 0 8.334-1.667 11.001-5s4-7 4-11v-255h229c4 0 7.333 1.5 10 4.5s4 6.5 4 10.5v338h98c4.667 0 8.5 1.5 11.5 4.5s4.5 6.5 4.5 10.5v41l-449 401z" />
<glyph unicode="&#x35;" glyph-name="five" data-tags="five" d="M856 799.667c-0.667 5.333-2.832 10.334-6.499 15.001s-8.167 7.667-13.5 9c-44.667 12.667-88.667 15.5-132 8.5s-86.833-16.167-130.5-27.5-87.167-20.833-130.5-28.5-87.333-5.834-132 5.499l-5 37c-0.667 5.333-3 9.666-7 12.999s-8.667 4.666-14 3.999l-63-8c-5.333-0.667-9.666-3.167-12.999-7.5s-4.666-9.166-3.999-14.499l97-770c0.667-4.667 3-8.667 7-12s8.667-4.666 14-3.999l63 8c5.333 0.667 9.666 3 12.999 7s4.666 8.667 3.999 14l-46 366c42-6.667 83.667-5.667 125 3s82.5 18.334 123.5 29.001 82.167 19 123.5 25 83 3 125-9c5.333-2 9.666-1.833 12.999 0.5s5 6.166 5 11.499l-4 81-4 81.5-4 81-4 81.5z" />
<glyph unicode="&#x36;" glyph-name="six" data-tags="six" d="M930 664.667l-419.002-318-421 318c-18 12.667-28.5 18.334-31.5 17.001s-4.5-12.333-4.5-33v-514c0-4.667 1.667-8.5 5-11.5s7.666-4.5 12.999-4.5h878c4.667 0 8.834 1.5 12.501 4.5s5.5 6.833 5.5 11.5v514c0.667 21.333-0.666 32.666-3.999 33.999s-14.666-4.667-33.999-18v0zM118.998 712.667l391-295 392 295c18.667 15.333 27.667 24.166 27 26.499s-13.667 3.5-39 3.5h-759c-27.333 0-41.5-1.167-42.5-3.5s9.167-11.166 30.5-26.499v0z" />
<glyph unicode="&#x37;" glyph-name="seven" data-tags="seven" d="M971 469.667c0 51.333-7.165 94.501-21.498 129.501s-33.333 63.167-57 84.5-50.834 36.666-81.501 45.999-62.334 14-95.001 14h-391c-41.333 0-78.666-7.167-111.999-21.5s-61.833-34.833-85.5-61.5-41.834-59-54.501-97-19-80.333-19-127v-400c0-2.667 1.167-4.5 3.5-5.5s4.166-0.833 5.499 0.5l132 86c0.667 0 1.167 0.167 1.5 0.5s0.833 0.5 1.5 0.5l497-1c39.333 0.667 75.833 8.667 109.5 24s62.834 36.833 87.501 64.5 44 61 58 100 21 82.5 21 130.5v33zM644.002 296.668h-380v48h380v-48zM759.002 402.668h-495v47h495v-47zM762.002 507.668h-495v48h495v-48z" />
<glyph unicode="&#x38;" glyph-name="eight" data-tags="eight" d="M910 320.667l-96 66c0 6 0.833 12.333 2.5 19s2.5 14 2.5 22-0.167 15.333-0.5 22-1.833 13-4.5 19l87 70c4.667 4 7.167 8.167 7.5 12.5s-0.5 8.5-2.5 12.5l-83 144c-2 2-5.167 3.667-9.5 5s-9.5 1-15.5-1l-104-41c-10 8-21 15.333-33 22s-24.333 13-37 19l-16 107c-2 7.333-4.333 12.666-7 15.999s-6 5-10 5h-165c-4.667 0-9.334-1.833-14.001-5.5s-7-7.5-7-11.5l-17-111c-12-4-23.5-9.833-34.5-17.5s-22.833-15.5-35.5-23.5l-99 41c-6.667 2-12.167 2.167-16.5 0.5s-8.5-4.5-12.5-8.5l-83-144c-2-2-2.167-5.667-0.5-11s4.5-10 8.5-14l87-66c0-6-0.667-12.333-2-19s-2-14-2-22 0.167-15.333 0.5-22 1.5-13 3.5-19l-87-70c-4-4-6.167-8.167-6.5-12.5s0.5-8.5 2.5-12.5l83-144c2-2 5-3.667 9-5s9.333-1 16 1l103 41c10.667-8 22-15.333 34-22s24-13 36-19l17-107c0-4 1.833-7.833 5.5-11.5s8.834-5.5 15.501-5.5h165c4 0 8.5 1.833 13.5 5.5s7.5 7.5 7.5 11.5l16 107c12.667 6 25 12.333 37 19s23.333 14 34 22l103-41c4-2 8.667-2.167 14-0.5s9 4.834 11 9.501l83 143c2 4.667 2.833 9.5 2.5 14.5s-2.5 8.5-6.5 10.5v0zM508 283.667c-39.333 0-73.166 14.167-101.499 42.5s-42.5 62.166-42.5 101.499 14.167 73.166 42.5 101.499 62.166 42.5 101.499 42.5 73.333-14.167 102-42.5 43-62.166 43-101.499-14.333-73.166-43-101.499-62.667-42.5-102-42.5v0z" />
<glyph unicode="&#x39;" glyph-name="nine" data-tags="nine" d="M908 99.667l-218.002 217.998c-1.333 1.333-2.833 2.5-4.5 3.5s-3.5 1.5-5.5 1.5h-25c-2 0-3.833 0.333-5.5 1s-3.167 1.667-4.5 3v0c-2.667 2.667-4.167 5.834-4.5 9.501s0.834 7.167 3.501 10.5c20.667 24.667 36.667 53 48 85s17 65.667 17 101c0 41.333-7.833 80.5-23.5 117.5s-37.167 69.167-64.5 96.5-59.333 48.833-96 64.5-75.667 23.5-117 23.5c-42 0-81.333-7.833-118-23.5s-68.667-37.167-96-64.5-48.833-59.5-64.5-96.5-23.5-76.167-23.5-117.5c0-42 7.833-81.5 23.5-118.5s37.167-69.167 64.5-96.5 59.333-48.833 96-64.5 76-23.5 118-23.5c34.667 0 67.834 5.667 99.501 17s59.834 27.333 84.501 48c3.333 2.667 6.666 3.834 9.999 3.501s6.333-1.833 9-4.5c2-1.333 3.167-2.833 3.5-4.5s0.5-3.5 0.5-5.5v-25c0-2 0.5-3.833 1.5-5.5s2.167-3.167 3.5-4.5l218-219c2.667-2.667 6.167-4 10.5-4s7.833 1.333 10.5 4l49 49c2.667 3.333 4 7 4 11s-1.333 7.333-4 10v0zM408.998 308.665c-30.667 0-59.5 5.833-86.5 17.5s-50.5 27.5-70.5 47.5-35.833 43.5-47.5 70.5-17.5 55.833-17.5 86.5 5.833 59.5 17.5 86.5 27.5 50.667 47.5 71 43.5 36.166 70.5 47.499 55.833 17 86.5 17 59.5-5.667 86.5-17 50.5-27.166 70.5-47.499 35.833-44 47.5-71 17.5-55.833 17.5-86.5-5.833-59.5-17.5-86.5-27.5-50.5-47.5-70.5-43.5-35.833-70.5-47.5-55.833-17.5-86.5-17.5v0z" />
<glyph unicode="&#x3a;" glyph-name="colon" data-tags="colon" d="M511 930.667c-44 0-85.165-8.167-123.498-24.5s-71.833-38.833-100.5-67.5-51.334-62.167-68.001-100.5-25-79.5-25-123.5c0-75.333 16.5-153.833 49.5-235.5s69.333-156.5 109-224.5 76-124.167 109-168.5l49.5-66.5 49.5 66.5c33 44.333 69.333 100.5 109 168.5s76 142.833 109 224.5 49.5 160.167 49.5 235.5c0 44-8.333 85.167-25 123.5s-39.334 71.833-68.001 100.5-62.167 51.167-100.5 67.5-79.5 24.5-123.5 24.5v0zM303.002 740.667l1.499 1.499c0.333 0.333 0.833 0.5 1.5 0.5l199 117c1.333 1.333 3 2 5 2s4-0.667 6-2l198-116c0.667-0.667 1.334-1.167 2.001-1.5s1-0.833 1-1.5c1.333-2 2.333-3.667 3-5s1-2.666 1-3.999c0-3.333-1.167-5.833-3.5-7.5s-4.833-2.5-7.5-2.5h-401c-2 0-3.833 0.333-5.5 1s-2.834 1.667-3.501 3c-2 3.333-2.167 6.333-0.5 9s2.834 4.667 3.501 6v0zM686.001 528.666c0-3.333-1.167-6-3.5-8s-4.833-3-7.5-3h-42c-2.667 0-5.167 1-7.5 3s-3.5 4.667-3.5 8v166c0 3.333 1.167 6 3.5 8s4.833 3 7.5 3h42c2.667 0 5.167-1 7.5-3s3.5-4.667 3.5-8v-166zM590.001 528.666c0-3.333-1-6-3-8s-4.667-3-8-3h-42c-2.667 0-5.167 1-7.5 3s-3.5 4.667-3.5 8v166c0 3.333 1.167 6 3.5 8s4.833 3 7.5 3h42c3.333 0 6-1 8-3s3-4.667 3-8v-166zM494.001 528.666c0-3.333-1-6-3-8s-4.667-3-8-3h-41c-3.333 0-6 1-8 3s-3 4.667-3 8v166c0 3.333 1 6 3 8s4.667 3 8 3h41c3.333 0 6-1 8-3s3-4.667 3-8v-166zM399.001 528.666c0-3.333-1.167-6-3.5-8s-4.833-3-7.5-3h-42c-3.333 0-6 1-8 3s-3 4.667-3 8v166c0 3.333 1 6 3 8s4.667 3 8 3h42c2.667 0 5.167-1 7.5-3s3.5-4.667 3.5-8v-166zM731.001 443.666l-0.002-12c0-3.333-1-5.833-3-7.5s-4.333-2.5-7-2.5h-421c-3.333 0-5.833 0.833-7.5 2.5s-2.5 4.167-2.5 7.5v11c0 1.333 0.167 2.5 0.5 3.5s0.833 2.167 1.5 3.5l29 38c0.667 1.333 1.834 2.333 3.501 3s3.167 1 4.5 1l367 1c2 0 3.833-0.333 5.5-1s2.834-2 3.501-4l24-39c0.667-0.667 1.167-1.5 1.5-2.5s0.5-1.833 0.5-2.5v0z" />
<glyph unicode="&#x3b;" glyph-name="semicolon" data-tags="semicolon" d="M65 344.667c-3.333 0-6.502 1.499-9.502 4.499s-4.5 6.5-4.5 10.5v12c0 4 1.5 6.833 4.5 8.5s6.167 2.5 9.5 2.5h431c9.333 10 19 17.833 29 23.5s20.333 10.834 31 15.501h-491c-3.333 0-6.5 1.667-9.5 5s-4.5 6.666-4.5 9.999v13c0 3.333 1.5 6.333 4.5 9s6.167 4 9.5 4h539c4 0 6.833-1.333 8.5-4s2.5-5.667 2.5-9v-1c9.333 2 17.833 4 25.5 6s16.167 3.667 25.5 5v36c0 4 0.833 7 2.5 9s4.5 3 8.5 3h249c3.333 0 6.666-1 9.999-3s5-5 5-9v-59c0-3.333-1.667-6.666-5-9.999s-6.666-5-9.999-5h-34c20-8 38.5-19.167 55.5-33.5s32.833-29.5 47.5-45.5v372c0 13.333-4.667 25.166-14 35.499s-20.666 15.5-33.999 15.5h-884c-13.333 0-25.166-5.167-35.499-15.5s-15.5-22.166-15.5-35.499v-396c0-14 5.167-25.833 15.5-35.5s22.166-14.5 35.499-14.5h339c7.333 14 15.333 27.333 24 40s18.334 24.667 29.001 36h-390zM933.998 657.666c0-3.333-1.167-6.333-3.5-9s-5.5-4-9.5-4h-22c-3.333 0-6.333 1.333-9 4s-4 5.667-4 9v12c0 4 1.333 7.167 4 9.5s5.667 3.5 9 3.5h22c4 0 7.167-1.167 9.5-3.5s3.5-5.5 3.5-9.5v-12zM860.998 657.666c0-3.333-1.333-6.333-4-9s-5.667-4-9-4h-22c-4 0-7.167 1.333-9.5 4s-3.5 5.667-3.5 9v12c0 4 1.167 7.167 3.5 9.5s5.5 3.5 9.5 3.5h22c3.333 0 6.333-1.167 9-3.5s4-5.5 4-9.5v-12zM786.998 657.666c0-3.333-1.167-6.333-3.5-9s-5.166-4-8.499-4h-23c-3.333 0-6.166 1.333-8.499 4s-3.5 5.667-3.5 9v12c0 4 1.167 7.167 3.5 9.5s5.166 3.5 8.499 3.5h23c3.333 0 6.166-1.167 8.499-3.5s3.5-5.5 3.5-9.5v-12zM716.998 657.666c0-3.333-1.167-6.333-3.5-9s-5.5-4-9.5-4h-22c-3.333 0-6.333 1.333-9 4s-4 5.667-4 9v12c0 4 1.333 7.167 4 9.5s5.667 3.5 9 3.5h22c4 0 7.167-1.167 9.5-3.5s3.5-5.5 3.5-9.5v-12zM636.998 657.666c0-3.333-1.167-6.333-3.5-9s-5.166-4-8.499-4h-22c-4 0-7.167 1.333-9.5 4s-3.5 5.667-3.5 9v12c0 4 1.167 7.167 3.5 9.5s5.5 3.5 9.5 3.5h22c3.333 0 6.166-1.167 8.499-3.5s3.5-5.5 3.5-9.5v-12zM117.998 733.666c18 0 33.5-6.5 46.5-19.5s19.5-28.5 19.5-46.5-6.5-33.5-19.5-46.5-28.5-19.5-46.5-19.5-33.5 6.5-46.5 19.5-19.5 28.5-19.5 46.5 6.5 33.5 19.5 46.5 28.5 19.5 46.5 19.5v0zM724.998 430.666c-32.667 0-64-4.833-94-14.5s-57.5-23.167-82.5-40.5-47.167-38.166-66.5-62.499-34.666-50.833-45.999-79.5c11.333-28.667 26.666-55.167 45.999-79.5s41.5-45.166 66.5-62.499 52.5-30.833 82.5-40.5 61.333-14.5 94-14.5c33.333 0 65 4.833 95 14.5s57.5 23.167 82.5 40.5 47.167 38.166 66.5 62.499 34.666 50.833 45.999 79.5c-11.333 28.667-26.666 55.167-45.999 79.5s-41.5 45.166-66.5 62.499-52.5 30.833-82.5 40.5-61.667 14.5-95 14.5v0zM724.998 102.666c-36.667 0-67.667 12.667-93 38s-38 56.333-38 93 12.667 67.667 38 93 56.333 38 93 38c37.333 0 68.666-12.667 93.999-38s38-56.333 38-93-12.667-67.667-38-93-56.666-38-93.999-38v0zM724.998 312.666c-22 0-40.5-7.5-55.5-22.5s-22.5-33.833-22.5-56.5c0-22 7.5-40.667 22.5-56s33.5-23 55.5-23c22.667 0 41.5 7.667 56.5 23s22.5 34 22.5 56-7.5 40.667-22.5 56-33.833 23-56.5 23v0z" />
<glyph unicode="&#x3c;" glyph-name="less" data-tags="less" d="M251 729.667c-0.667 2.667-1.665 5.167-2.998 7.5s-2.666 4.5-3.999 6.5c-4 6.667-8.833 13.167-14.5 19.5s-12.167 12.166-19.5 17.499c-12.667 9.333-24.667 16-36 20s-17.333 6-18 6l-36 8c-0.667 0.667-1.334 0.834-2.001 0.501s-1.334-0.833-2.001-1.5c-2.667-3.333-4.834-7.5-6.501-12.5s-2.5-10.5-2.5-16.5c0-20 2.167-34.333 6.5-43s7.5-14 9.5-16c0-0.667 0.333-1 1-1h124c1.333 0 2.333 0.5 3 1.5s0.667 2.167 0 3.5v0zM853.002 112.667l-539.999 0.002v-1c0-15.333-2.5-28.5-7.5-39.5s-10.833-20.167-17.5-27.5c-3.333-3.333-7.333-6.333-12-9s-9.334-5-14.001-7c-2-0.667-2.833-1.834-2.5-3.501s1.833-2.5 4.5-2.5l528-1c8 0 16.167 2.167 24.5 6.5s15.5 10.833 21.5 19.5c5.333 7.333 9.833 16.166 13.5 26.499s5.5 21.5 5.5 33.5c0 1.333-0.333 2.5-1 3.5s-1.667 1.5-3 1.5v0zM281.003 110.669l0.002 24.002c0 1.333 0.667 2.666 2 3.999s2.666 2 3.999 2h418c2 0 3.5 0.667 4.5 2s1.5 2.666 1.5 3.999c-0.667 4-1 8-1 12v12c0 20 2 41 6 63s9.667 44.667 17 68c0 0.667-0.167 1.5-0.5 2.5s-0.833 1.833-1.5 2.5l-81 89c-3.333 3.333-7.5 5.166-12.5 5.499s-9.167-1.5-12.5-5.5l-22-21c-3.333-3.333-7.333-5-12-5s-8.667 1.667-12 5l-105 105c-3.333 3.333-5 7.333-5 12s1.667 8.667 5 12l138 139c3.333 3.333 7.333 5 12 5s8.667-1.667 12-5l106-106c3.333-3.333 5-7.333 5-12s-1.667-8.667-5-12l-22-22c-3.333-3.333-5-7.5-5-12.5s1.667-9.167 5-12.5l45-41c1.333-1.333 3-1.833 5-1.5s3.333 1.5 4 3.5c15.333 44 29.333 88.167 42 132.5s19 86.833 19 127.5c0 63.333-19.833 103.833-59.5 121.5s-61.5 26.834-65.5 27.501l-1 1h-514c-2.667 0-4.334-1.667-5.001-5s0.333-5.666 3-6.999c15.333-6.667 32.5-18 51.5-34s32.167-38 39.5-66c1.333-6 2.5-12.167 3.5-18.5s1.5-12.833 1.5-19.5c0-41.333-6.667-84.666-20-129.999s-27.833-90.5-43.5-135.5-30-89-43-132-19.5-82.5-19.5-118.5c0-9.333 0.667-18.5 2-27.5s3.333-18.167 6-27.5c2-6.667 4.667-13.167 8-19.5s7.333-12.5 12-18.5c2.667-3.333 5.667-6.5 9-9.5s7-5.5 11-7.5c3.333-2.667 7-4.834 11-6.501s8-2.834 12-3.501c6 0 11.667 1.167 17 3.5s10 5.5 14 9.5c5.333 6 9.333 13 12 21s4 16.667 4 26v0zM634.005 695.671c4 4 8.667 6 14 6s10-2 14-6l127-126c4-4 6-8.833 6-14.5s-2-10.5-6-14.5-8.833-6-14.5-6-10.5 2-14.5 6l-126 127c-4 4-6 8.667-6 14s2 10 6 14v0zM423.005 478.671c4 4 8.833 6 14.5 6s10.5-2 14.5-6l126-127c4-4 6-8.833 6-14.5s-2-10.5-6-14.5-8.833-6-14.5-6-10.5 2-14.5 6l-126 127c-4 4-6 8.833-6 14.5s2 10.5 6 14.5v0z" />
<glyph unicode="&#x3d;" glyph-name="equal" data-tags="equal" d="M918 419.667l-0.001-46c0-13.333-4.833-24.666-14.5-33.999s-21.167-14-34.5-14-25 4.667-35 14-15 20.666-15 33.999v44h-137v-44c0-13.333-4.333-24.666-13-33.999s-19.667-14-33-14-24.333 4.667-33 14-13 20.666-13 33.999v46c-24-0.667-42.833-8.167-56.5-22.5s-20.5-31.5-20.5-51.5v-329c0-23.333 7.5-43.666 22.5-60.999s34.167-26 57.5-26h321c22.667 0 41.834 8.667 57.501 26s23.5 37.666 23.5 60.999v329c0 20-8 37.333-24 52s-33.667 22-53 22v0zM955.999 16.667c0-13.333-3.833-24.166-11.5-32.499s-17.834-12.5-30.501-12.5h-321c-13.333 0-24.666 4.167-33.999 12.5s-14 19.166-14 32.499v248h411v-248zM614.999 433.667v-60c0-6 2-11 6-15s9-6 15-6 11 2 15 6 6 9 6 15v60c0 6-2 11-6 15s-9 6-15 6-11-2-15-6-6-9-6-15v0zM847.999 433.667v-60c0-6 2-11 6-15s9-6 15-6c5.333 0 10 2 14 6s6 9 6 15v60c0 6-2 11-6 15s-8.667 6-14 6c-6 0-11-2-15-6s-6-9-6-15v0zM632.999 45.667c5.333-9.333 12.999-16.333 22.999-21s22.333-7 37-7c12 0 22.333 1.667 31 5s16 8 22 14c6 6.667 10.5 13.834 13.5 21.501s4.5 15.834 4.5 24.501c0 8-1.333 15.333-4 22s-6.334 12.334-11.001 17.001c-1.333 1.333-2.666 2.5-3.999 3.5s-2.666 1.833-3.999 2.5c-2 1.333-3 2.666-3 3.999s1 2.666 3 3.999c0.667 0.667 1.667 1.5 3 2.5s2.333 2.167 3 3.5c3.333 4 6 8.667 8 14s3 11 3 17c0 8-1.5 15.5-4.5 22.5s-7.5 12.833-13.5 17.5c-6 5.333-13 9.333-21 12s-17 4-27 4c-4.667 0-9.334-0.333-14.001-1s-8.667-1.667-12-3c-4-1.333-7.5-3-10.5-5s-5.833-4-8.5-6c-3.333-3.333-6.333-6.833-9-10.5s-4.667-7.5-6-11.5c-1.333-3.333-2.333-6.666-3-9.999l-2-10c0-2.667 0.833-4.834 2.5-6.501s3.5-2.5 5.5-2.5h20c2.667 0 4.834 0.833 6.501 2.5s2.5 3.834 2.5 6.501c0.667 2.667 1.5 5.334 2.5 8.001s2.167 5 3.5 7c2.667 2.667 5.667 4.834 9 6.501s7.333 2.5 12 2.5c4 0 7.667-0.667 11-2s6-3.333 8-6c2.667-2 4.5-4.667 5.5-8s1.5-7 1.5-11c0-6-1-11-3-15s-5.333-7-10-9c-2-0.667-4.667-1.334-8-2.001s-7-1-11-1c-2.667 0-4.834-1-6.501-3s-2.5-4-2.5-6v-11c0-2.667 0.833-4.834 2.5-6.501s3.834-2.834 6.501-3.501c4.667 0 8.667-0.333 12-1s6.333-1.334 9-2.001c5.333-2 9.333-5.333 12-10s4-10.334 4-17.001c0-5.333-0.667-9.833-2-13.5s-3.666-6.834-6.999-9.501c-2.667-3.333-5.667-5.666-9-6.999s-7-2-11-2c-6.667 0-12.167 1.333-16.5 4s-7.833 6.334-10.5 11.001l-2 6c-0.667 2-1 4-1 6-0.667 2.667-1.834 5-3.501 7s-3.834 3-6.501 3h-21c-2.667 0-4.834-1-6.501-3s-2.5-4.333-2.5-7c0.667-6 1.834-11.667 3.501-17s3.834-10 6.501-14v0zM804.998 165.667l30.002 0.003c2.667 0 5-1.167 7-3.5s3-4.833 3-7.5v-123c0-2.667 0.667-5.334 2-8.001s3.333-4 6-4h23c2.667 0 4.5 1.333 5.5 4s1.5 5.334 1.5 8.001v187c0 2-0.5 3.833-1.5 5.5s-2.833 2.5-5.5 2.5h-15c-2.667 0-4.834-0.333-6.501-1s-2.834-1.667-3.501-3c0-0.667-0.167-1.334-0.5-2.001s-0.5-1.334-0.5-2.001c-0.667-2.667-1.667-5.334-3-8.001s-3-4.667-5-6c-2.667-2.667-5.5-5-8.5-7s-6.5-3.333-10.5-4c-2-0.667-4.5-1.167-7.5-1.5s-6.5-0.5-10.5-0.5c-2 0-3.833-1-5.5-3s-2.5-4.333-2.5-7v-9c0-2.667 0.667-4.5 2-5.5s3.333-1.5 6-1.5v0zM966 720.67c0 16.667-4 30.5-12 41.5s-18.333 16.5-31 16.5h-822c-12.667 0-23.167-5.5-31.5-16.5s-12.5-24.833-12.5-41.5v-79h909v79zM911 472.67c12 0 23-3 33-9s17.333-14 22-24v65h-909v-369c0-14.667 4.167-27 12.5-37s18.833-15 31.5-15h377v328c0 17.333 6.167 31.833 18.5 43.5s26.833 17.5 43.5 17.5h371z" />
<glyph unicode="&#x3e;" glyph-name="greater" data-tags="greater" d="M782 781.667l-45.002 45.006c-6 5.333-13.5 8-22.5 8s-16.5-3-22.5-9l-28-28-29 28c-6 6-13.5 9-22.5 9s-16.5-3-22.5-9l-28-28-26 26c-6 5.333-13.5 8.166-22.5 8.499s-16.5-2.834-22.5-9.501l-26-25-26 26c-6 5.333-13.5 8.166-22.5 8.499s-16.5-2.834-22.5-9.501l-26-25-25 26c-6.667 5.333-14.334 8.166-23.001 8.499s-16-2.834-22-9.501l-42-41c-3.333-4-6.166-8.5-8.499-13.5s-3.5-10.5-3.5-16.5v-522h1v-128c0-5.333 1-10.5 3-15.5s5-9.5 9-13.5l41-41c6-6 13.333-9 22-9s16.334 3 23.001 9l25 26 26-26c6-6 13.5-9 22.5-9s16.5 3 22.5 9l26 26 26-26c6-6 13.5-9 22.5-9s16.5 3 22.5 9l26 26 28-29c6-6 13.5-9 22.5-9s16.5 3.333 22.5 10l29 28 28-29c3.333-2.667 6.833-4.834 10.5-6.501s7.834-2.5 12.501-2.5c4 0 8 0.833 12 2.5s7.333 3.834 10 6.501l45 44c3.333 4 6.166 8.5 8.499 13.5s3.5 10.167 3.5 15.5v651c0 5.333-1.167 10.5-3.5 15.5s-5.166 9.5-8.499 13.5v0zM346.998 511.673c0 4 1.5 7.5 4.5 10.5s6.5 4.5 10.5 4.5h191c4 0 7.333-1.5 10-4.5s4-6.5 4-10.5v-37c0-4-1.333-7.5-4-10.5s-6-4.5-10-4.5h-191c-4 0-7.5 1.5-10.5 4.5s-4.5 6.5-4.5 10.5v37zM512.998 193.673c0-4-1.5-7.5-4.5-10.5s-6.5-4.5-10.5-4.5h-136c-4 0-7.5 1.5-10.5 4.5s-4.5 6.5-4.5 10.5v37c0 4.667 1.5 8.334 4.5 11.001s6.5 4 10.5 4h136c4 0 7.5-1.333 10.5-4s4.5-6.334 4.5-11.001v-37zM636.998 337.673c0-4.667-1.333-8.334-4-11.001s-6-4-10-4h-261c-4 0-7.5 1.333-10.5 4s-4.5 6.334-4.5 11.001v37c0 4 1.5 7.5 4.5 10.5s6.5 4.5 10.5 4.5h261c4 0 7.333-1.5 10-4.5s4-6.5 4-10.5v-37zM681.998 608.673c0-4-1.5-7.5-4.5-10.5s-6.5-4.5-10.5-4.5h-305c-4 0-7.5 1.5-10.5 4.5s-4.5 6.5-4.5 10.5v37c0 4 1.5 7.5 4.5 10.5s6.5 4.5 10.5 4.5h305c4 0 7.5-1.5 10.5-4.5s4.5-6.5 4.5-10.5v-37z" />
<glyph unicode="&#x3f;" glyph-name="question" data-tags="question" d="M812 682.667l-139.001 151.999c-0.667 0.667-1.167 1-1.5 1h-402.5c-14.667 0-27.167-5.167-37.5-15.5s-15.5-22.833-15.5-37.5v-707c0-13.333 4.667-25 14-35s21-15 35-15h494c14.667 0 27.334 5.333 38.001 16s16 23.334 16 38.001v600c0 0.667-0.167 1.167-0.5 1.5s-0.5 0.833-0.5 1.5v0zM302.999 611.666c0 1.333 0.333 2.333 1 3s1.667 1 3 1h42c1.333 0 2.5-0.333 3.5-1s1.5-1.667 1.5-3v-256c0-1.333 0.333-2.333 1-3s1.667-1 3-1h132c0.667 0 1.5-0.5 2.5-1.5s1.5-2.167 1.5-3.5v-29c0-1.333-0.5-2.5-1.5-3.5s-1.833-1.5-2.5-1.5h-183c-1.333 0-2.333 0.5-3 1.5s-1 2.167-1 3.5v294zM534.999 96.666c0-0.667-0.333-1.5-1-2.5s-1.667-1.5-3-1.5h-227c-1.333 0-2.5 0.5-3.5 1.5s-1.5 1.833-1.5 2.5v33c0 1.333 0.5 2.5 1.5 3.5s2.167 1.5 3.5 1.5h227c1.333 0 2.333-0.5 3-1.5s1-2.167 1-3.5v-33zM611.999 202.666c0-1.333-0.5-2.5-1.5-3.5s-1.833-1.5-2.5-1.5h-304c-1.333 0-2.5 0.5-3.5 1.5s-1.5 2.167-1.5 3.5v32c0 1.333 0.5 2.5 1.5 3.5s2.167 1.5 3.5 1.5h304c0.667 0 1.5-0.5 2.5-1.5s1.5-2.167 1.5-3.5v-32zM582.999 372.666c6.667-8 14.329-14.167 22.996-18.5s18.334-6.5 29.001-6.5c10 0 19 1.333 27 4s15 7 21 13c4.667 5.333 8.334 11.666 11.001 18.999s4.334 15.333 5.001 24c0 1.333 0.333 2.333 1 3s1.667 1 3 1h45v-1c0.667-15.333-1.5-29.166-6.5-41.499s-12.833-23.166-23.5-32.499c-10-10-22-17.333-36-22s-30-7-48-7c-17.333 0-33.333 3-48 9s-27.667 15-39 27-19.833 25.667-25.5 41-8.5 32.333-8.5 51v58c0 18.667 2.833 35.5 8.5 50.5s14.167 28.833 25.5 41.5c10.667 12 23.334 21 38.001 27s30.667 9 48 9c18 0 34.167-2.5 48.5-7.5s26.5-12.167 36.5-21.5c10.667-9.333 18.5-20.5 23.5-33.5s7.5-27.5 7.5-43.5l-1-2h-45c-1.333 0-2.333 0.5-3 1.5s-1 1.833-1 2.5c-0.667 10-2.334 18.667-5.001 26s-6.667 13.666-12 18.999c-5.333 6-12.166 10.5-20.499 13.5s-17.833 4.5-28.5 4.5-20.167-2-28.5-6-15.5-10.333-21.5-19c-6-8-10.667-17.167-14-27.5s-5-21.833-5-34.5v-58c0-12.667 1.667-24.167 5-34.5s8-19.833 14-28.5v0zM758.994 667.666l-84.999 0.999c-1.333 0-2.5 0.5-3.5 1.5s-1.5 2.167-1.5 3.5v89c0 2 1 3.333 3 4s3.667 0.334 5-0.999l85-90c1.333-1.333 1.666-3 0.999-5s-2-3-4-3v0z" />
<glyph unicode="&#x40;" glyph-name="at" data-tags="at" d="M359 626.667c1.333-2 3.333-3 6-3s4.667 1 6 3l109 199c1.333 2 1.333 4.167 0 6.5s-3.333 3.5-6 3.5h-214c-2.667 0-4.667-1.167-6-3.5s-1.333-4.5 0-6.5l105-199zM404 599.667h218c2.667 0 4.667 1.333 6 4s1.333 5 0 7l-109 199c-1.333 2.667-3.333 4-6 4s-4.667-1.333-6-4l-109-199c-1.333-2-1.333-4.333 0-7s3.333-4 6-4v0zM655 626.667c1.333-2 3.333-3 6-3s4.667 1 6 3l105 199c1.333 2 1.333 4.167 0 6.5s-3.333 3.5-6 3.5h-214c-2.667 0-4.667-1.167-6-3.5s-1.333-4.5 0-6.5l109-199zM332 610.667l-106.002 200.001c-1.333 2-3.166 3.167-5.499 3.5s-4.166-0.5-5.499-2.5l-138-200c-1.333-2.667-1.333-5.334 0-8.001s3.333-4 6-4h243c2.667 0 4.667 1.333 6 4s1.333 5 0 7v0zM947.998 611.668l-137 199c-1.333 2-3.333 3-6 3s-4.667-1-6-3l-106-200c-1.333-2-1.333-4.333 0-7s3.333-4 6-4h243c2.667 0 4.667 1.5 6 4.5s1.333 5.5 0 7.5v0zM922.998 574.668h-237c-4 0-7.667-1.333-11-4s-5.333-6-6-10l-106-513c-2-9.333 1.5-15.833 10.5-19.5s16.167-1.5 21.5 6.5l343 513c3.333 6 3.5 12 0.5 18s-8.167 9-15.5 9v0zM620.998 574.668h-215.998c-5.333 0-9.833-2.167-13.5-6.5s-4.834-9.166-3.501-14.499l107-521c2-8.667 7.833-13 17.5-13s15.5 4.333 17.5 13l108 521c1.333 5.333 0.166 10.166-3.501 14.499s-8.167 6.5-13.5 6.5v0zM356 560.668c-0.667 4-2.5 7.333-5.5 10s-6.833 4-11.5 4h-237c-7.333 0-12.5-3-15.5-9s-2.833-12 0.5-18l344-513c5.333-8 12.5-10.167 21.5-6.5s12.5 10.167 10.5 19.5l-107 513z" />
<glyph unicode="&#x41;" glyph-name="A" data-tags="A" d="M430 62.667c0-10.667 5-18 15-22s18.667-2.333 26 5l100 113 16 19.5c4 5 6 11.5 6 19.5v13h-163v-148zM860 816.667l-698.003-0.001c-16 0-27.167-7.167-33.5-21.5s-4.166-27.5 6.501-39.5l283-307c4-4 7-9 9-15s3-12 3-18v-163h163v163c0 6 0.833 11.833 2.5 17.5s4.834 10.834 9.501 15.501l282 307c10.667 12 12.834 25.167 6.501 39.5s-17.5 21.5-33.5 21.5v0z" />
<glyph unicode="&#x42;" glyph-name="B" data-tags="B" d="M849 653.667l-12.001-3-64-6-19-30-13 5-33 48-26 23-10 25-32 30-38 7-1-17 37-37 18-22-20-11-17 5-18 12-6 19-33 14-16-40-28-16 3-26 43-9 14 32 29 7 17-9h27l41-31 25-56-3-20-39 5-79-4-37-89-6-26h-18l-32 16-32-15 8-34 14 16 24 1-2-30 20-6 20-22 33 9 37-6 43-12 22-2 17-54 119-25-75-92-48-23-18-50-70-46-7-27c44 10.667 85 28.167 123 52.5s70.833 54 98.5 89 49.334 74 65.001 117 23.5 88.833 23.5 137.5c0 42-6 82.167-18 120.5s-29 73.5-51 105.5v0zM528.999 333.667l-30.001 31.001-68 15-23 47v-27l-24-12-58 86 9 71-43 57-61-2h-46l-23 16 29 24-29-7c-17.333-30-31-62.333-41-97s-15-71-15-109c0-56 10.667-108.833 32-158.5s50.333-92.834 87-129.501 79.667-65.667 129-87 102-32 158-32c8.667 0 17.334 0.333 26.001 1l25 2-4 50 9.5 37c6.333 24.667 9.5 37.667 9.5 39 0 0.667-3.167 11.667-9.5 33l-9.5 32-30 55 49 36-49 29zM256.998 703.668l72.001 9.998 34 18 37-11 60 4 20 32 30-5 73 7 19 22 29 19 40-6 14 2c-26 12.667-53.5 22.334-82.5 29.001s-59.167 10-90.5 10-61.833-3.333-91.5-10-57.834-16.5-84.501-29.5-51.5-28.667-74.5-47-43.833-39.166-62.5-62.499v0l58 18z" />
<glyph unicode="&#x43;" glyph-name="C" data-tags="C" d="M645 771.667l-17 36c-6 12-15 20.167-27 24.5s-23.667 3.5-35-2.5l-296-150h45l330 92zM690 679.667h117.001l-14 54c-2.667 10.667-8.334 19.167-17.001 25.5s-18 9.5-28 9.5c-2 0-4-0.167-6-0.5s-4-0.5-6-0.5l-78-22-237-66h269zM927.001 435.667c-2 2.667-4.501 5-7.501 7s-6.167 3.667-9.5 5c-0.667 0-2.167 0.167-4.5 0.5s-3.5 0.833-3.5 1.5v149c0 12.667-4.5 24-13.5 34s-19.833 15-32.5 15h-688c-7.333 0-14.166-1.667-20.499-5s-11.5-8-15.5-14c-2-2-3.5-4.667-4.5-8s-2.167-6.333-3.5-9v-544c0-13.333 4.167-24.666 12.5-33.999s18.833-14 31.5-14h688c12.667 0 23.5 4.667 32.5 14s13.5 20.666 13.5 33.999v153c0 0.667 1 1.167 3 1.5s3.667 0.833 5 1.5c3.333 0.667 6.5 2 9.5 4s5.5 4.333 7.5 7c4.667 4.667 8.667 10.5 12 17.5s5 14.5 5 22.5v121c0 8-1.667 15.5-5 22.5s-7.333 12.833-12 17.5v0zM762 237.667c-26.667 0-49.5 9.5-68.5 28.5s-28.5 41.833-28.5 68.5 9.5 49.5 28.5 68.5 41.833 28.5 68.5 28.5 49.5-9.5 68.5-28.5 28.5-41.833 28.5-68.5-9.5-49.5-28.5-68.5-41.833-28.5-68.5-28.5v0z" />
<glyph unicode="&#x44;" glyph-name="D" data-tags="D" d="M795 588.667c34 0 63.168 12.172 87.501 36.505s36.5 53.833 36.5 88.5c0 34-12.167 63.167-36.5 87.5s-53.5 36.5-87.5 36.5c-34.667 0-64.167-12.167-88.5-36.5s-36.5-53.5-36.5-87.5c0-4.667 0.333-9.167 1-13.5l2-13.5-355-204c-10.667 11.333-23.667 20.166-39 26.499s-31.666 9.5-48.999 9.5c-34 0-63.167-12.167-87.5-36.5s-36.5-53.5-36.5-87.5c0-34.667 12.167-64.167 36.5-88.5s53.5-36.5 87.5-36.5c18 0 34.667 3.5 50 10.5s28.666 16.167 39.999 27.5l306-150v-12c0-34.667 12.167-64.167 36.5-88.5s53.5-36.5 87.5-36.5c34.667 0 64.167 12.167 88.5 36.5s36.5 53.833 36.5 88.5c0 34-12.167 63.167-36.5 87.5s-53.833 36.5-88.5 36.5c-18.667 0-36-3.833-52-11.5s-30-17.834-42-30.501l-303 148c0.667 2.667 1.167 5.667 1.5 9s0.5 6.666 0.5 9.999-0.167 6.666-0.5 9.999-0.833 6.666-1.5 9.999l358 207c11.333-10 24.166-18 38.499-24s29.5-9 45.5-9v0z" />
<glyph unicode="&#x45;" glyph-name="E" data-tags="E" d="M359 228.667c-4 4-7.832 8.164-11.499 12.497s-7.167 8.833-10.5 13.5c-14.667-14.667-30.667-26.167-48-34.5s-35.666-12.5-54.999-12.5-37.833 4.167-55.5 12.5-33.834 19.833-48.501 34.5c-2.667-4.667-5.834-9.167-9.501-13.5s-7.834-8.5-12.501-12.5c-18.667-16.667-34.5-37-47.5-61s-21.5-50.333-25.5-79l-4-24c-0.667-5.333-0.5-10.5 0.5-15.5s3.167-9.833 6.5-14.5c2.667-4 6.167-7.167 10.5-9.5s8.833-3.5 13.5-3.5h270c-8 7.333-12.333 14.833-13 22.5s-0.334 15.167 0.999 22.5c4 26.667 9.833 51.334 17.5 74.001s17.834 46.334 30.501 71.001c2 3.333 1.833 6.333-0.5 9s-5.166 5.334-8.499 8.001v0zM232.001 266.664c38.667 0 71.5 14.333 98.5 43s40.5 63 40.5 103-13.5 74.333-40.5 103-59.833 43-98.5 43c-38 0-70.667-14.333-98-43s-41-63-41-103 13.667-74.333 41-103 60-43 98-43v0zM869.001 286.664c-4.667 4-9.165 8.333-13.498 13s-8.166 9.667-11.499 15c-24-25.333-50.5-45.166-79.5-59.499s-59.5-21.5-91.5-21.5-62.333 7.167-91 21.5-55 34.166-79 59.499c-4-5.333-8-10.333-12-15s-8.333-9-13-13c-29.333-26.667-54-58.667-74-96s-33.667-78.333-41-123c-0.667-6-0.334-11.667 0.999-17s3.333-10.333 6-15c3.333-4 7.333-7.333 12-10s9.334-4 14.001-4h554c5.333 0 10.166 1.333 14.499 4s8.166 6 11.499 10c3.333 4.667 5.666 9.667 6.999 15s1.333 11 0 17c-6.667 44.667-20 85.667-40 123s-44.667 69.333-74 96v0zM464.003 519.664c0-30 5.5-58.167 16.5-84.5s26-49.166 45-68.499 41.167-34.666 66.5-45.999 52.666-17 81.999-17c28.667 0 55.834 5.667 81.501 17s48 26.666 67 45.999 33.833 42.166 44.5 68.499 16 54.5 16 84.5-5.333 58-16 84-25.5 48.833-44.5 68.5-41.333 35.167-67 46.5-52.834 17-81.501 17c-29.333 0-56.666-5.667-81.999-17s-47.5-26.833-66.5-46.5-34-42.5-45-68.5-16.5-54-16.5-84v0z" />
<glyph unicode="&#x46;" glyph-name="F" data-tags="F" d="M914 703.667c-23.333 0-43.165-8.166-59.498-24.499s-24.5-36.166-24.5-59.499c0-8 1.167-15.667 3.5-23s5.5-14.333 9.5-21l-173-205c-5.333 2-10.666 3.667-15.999 5s-11 2-17 2c-9.333 0-18.333-1.5-27-4.5s-16.667-7.167-24-12.5l-146 105c1.333 4 2.333 7.833 3 11.5s1 7.5 1 11.5c0 23.333-8.333 43.166-25 59.499s-36.334 24.5-59.001 24.5c-23.333 0-43.166-8.167-59.499-24.5s-24.5-36.166-24.5-59.499c0-8 1-15.5 3-22.5s4.667-13.5 8-19.5l-144-173c-5.333 2.667-10.833 4.667-16.5 6s-11.5 2-17.5 2c-23.333 0-43.166-8.167-59.499-24.5s-24.5-36.166-24.5-59.499 8.167-43.166 24.5-59.499 36.166-24.5 59.499-24.5 43.166 8.167 59.499 24.5 24.5 36.166 24.5 59.499c0 7.333-1 14.5-3 21.5s-4.667 13.5-8 19.5l145 173c4.667-2 9.834-3.667 15.501-5s11.5-2 17.5-2c9.333 0 18.333 1.5 27 4.5s16.667 7.5 24 13.5l145-105-2-12c-0.667-4-1-8-1-12 0-23.333 8.167-43.166 24.5-59.499s36.166-24.5 59.499-24.5 43.166 8.167 59.499 24.5 24.5 36.166 24.5 59.499c0 7.333-1 14.666-3 21.999s-5 14.333-9 21l174 205c4.667-2 9.667-3.5 15-4.5s10.666-1.5 15.999-1.5c23.333 0 43.166 8.167 59.499 24.5s24.5 36.166 24.5 59.499-8.167 43.166-24.5 59.499-36.166 24.5-59.499 24.5v0z" />
<glyph unicode="&#x47;" glyph-name="G" data-tags="G" d="M794 827.667l0.001-80.998c0-23.333-8-43.166-24-59.499s-35.667-24.5-59-24.5-43 8.167-59 24.5-24 36.166-24 59.499v80h-239v-80c0-23.333-7.833-43.166-23.5-59.499s-35.167-24.5-58.5-24.5c-22.667 0-41.834 8.167-57.501 24.5s-23.5 36.166-23.5 59.499v81c-41.333-2-75-15.5-101-40.5s-39-55.167-39-90.5v-576c0-40 13.667-74.833 41-104.5s61-44.5 101-44.5h562c40 0 74 14.833 102 44.5s42 64.5 42 104.5v576c0 35.333-13.333 65.666-40 90.999s-60 38.666-100 39.999v0zM874.001 120.669c0-22.667-8.332-42.5-24.999-59.5s-36.334-25.5-59.001-25.5h-562c-22.667 0-42 8.5-58 25.5s-24 36.833-24 59.5v438h728v-438zM304.002 709.669c10 0 19.167 3.667 27.5 11s12.5 16 12.5 26v105c0 10-4.167 18.5-12.5 25.5s-17.5 10.5-27.5 10.5-19.167-3.5-27.5-10.5-12.5-15.5-12.5-25.5v-105c0-10 4.167-18.667 12.5-26s17.5-11 27.5-11v0zM711.002 709.669c10 0 18.333 3.5 25 10.5s10 15.833 10 26.5v105c0 10-3.333 18.5-10 25.5s-15 10.5-25 10.5-18.333-3.5-25-10.5-10-15.5-10-25.5v-105c0-10.667 3.333-19.5 10-26.5s15-10.5 25-10.5v0zM298.002 172.669c10-16.667 23.831-29.171 41.498-37.504s39.167-12.5 64.5-12.5c20.667 0 38.667 2.833 54 8.5s28.333 14.167 39 25.5c10.667 12 18.667 24.667 24 38s8 27.333 8 42-2.333 27.667-7 39-11.334 21.333-20.001 30l-7.5 5.5-6.5 4.5c-3.333 2.667-5.166 5-5.499 7s1.167 4.333 4.5 7c2 1.333 4 2.833 6 4.5s4 3.834 6 6.501c6 7.333 10.5 15.333 13.5 24s4.5 18.334 4.5 29.001c0 14.667-2.5 28-7.5 40s-12.833 22.333-23.5 31c-10.667 9.333-22.834 16.166-36.501 20.499s-29.167 6.5-46.5 6.5c-9.333 0-17.833-0.5-25.5-1.5s-14.834-2.833-21.501-5.5c-6-2-11.833-4.667-17.5-8s-10.5-7-14.5-11c-6.667-6-12.167-12.167-16.5-18.5s-8.166-13.166-11.499-20.499c-2-5.333-3.5-11.166-4.5-17.499s-2.167-12.5-3.5-18.5c0-4.667 1.333-8.667 4-12s6.334-5 11.001-5h34c4.667 0 8.5 1.667 11.5 5s4.833 7.333 5.5 12c0.667 5.333 1.834 10.333 3.501 15s3.834 8.667 6.501 12c4 5.333 9 9.333 15 12s13.333 4 22 4c7.333 0 13.666-1 18.999-3s10-5 14-9c4-4.667 7-9.667 9-15s3-11.666 3-18.999c0-10.667-1.833-19.5-5.5-26.5s-9.5-12.167-17.5-15.5c-3.333-1.333-7.666-2.5-12.999-3.5s-11.666-1.833-18.999-2.5c-4 0-7.5-1.667-10.5-5s-4.5-7-4.5-11v-19c0-4.667 1.5-8.5 4.5-11.5s6.5-4.5 10.5-4.5c8-0.667 15-1.5 21-2.5s11-2.167 15-3.5c9.333-4 16.333-10 21-18s7-18 7-30c0-8.667-1.333-16.334-4-23.001s-6.334-12.667-11.001-18c-5.333-4.667-11-8.167-17-10.5s-12.333-3.5-19-3.5c-11.333 0-21 2.167-29 6.5s-14 10.833-18 19.5c-1.333 2.667-2.5 5.834-3.5 9.501s-1.833 7.5-2.5 11.5-2.5 7.667-5.5 11-6.833 5-11.5 5h-37c-4.667 0-8.5-1.667-11.5-5s-4.167-7-3.5-11c1.333-10.667 3.333-20.667 6-30s6-17.333 10-24v0zM600 382.665l52.999 0.001c4 0 8.333-2.167 13-6.5s7-8.833 7-13.5v-215c0-4.667 0.833-9.167 2.5-13.5s4.5-6.5 8.5-6.5h41c4 0 6.833 2.167 8.5 6.5s2.5 8.5 2.5 12.5v327c0 4.667-0.833 8.334-2.5 11.001s-4.5 4-8.5 4h-27c-4.667 0-8.667-0.667-12-2s-5-3-5-5c-0.667-0.667-1-1.667-1-3s-0.333-2.333-1-3c-1.333-6-3.166-11-5.499-15s-5.166-7.667-8.499-11c-4-4.667-9-8.5-15-11.5s-12.333-5.5-19-7.5c-3.333-0.667-8-1.334-14-2.001s-12.333-1-19-1c-4.667-0.667-8.834-2.5-12.501-5.5s-5.5-6.833-5.5-11.5v-16c0-4.667 2.167-7.834 6.5-9.501s8.833-2.5 13.5-2.5v0z" />
<glyph unicode="&#x48;" glyph-name="H" data-tags="H" d="M694 329.667l-158.002 94c-2 1.333-3.667 2.666-5 3.999s-2 3-2 5v159c0 6.667-1 10.834-3 12.501l-3 2.5h-46c-3.333 0-6.166-1-8.499-3s-3.5-4.333-3.5-7v-203c0-1.333 0.833-2.833 2.5-4.5s3.167-2.834 4.5-3.501l187-112c2.667-1.333 5.334-1.666 8.001-0.999s4.667 2 6 4l24 39c1.333 2 1.833 4.5 1.5 7.5s-1.833 5.167-4.5 6.5v0zM513.998 833.667c-56 0-108.667-10.667-158-32s-92.166-50.5-128.499-87.5-65.166-80.167-86.499-129.5-32-102-32-158c0-56.667 10.667-109.667 32-159s50.166-92.333 86.499-129 79.166-65.667 128.499-87 102-32 158-32c55.333 0 107.666 10.667 156.999 32s92.333 50.333 129 87 65.5 79.667 86.5 129 31.5 102.333 31.5 159c0 56-10.5 108.667-31.5 158s-49.833 92.5-86.5 129.5-79.667 66.167-129 87.5-101.666 32-156.999 32v0zM512.998 104.667c-44 0-85.5 8.5-124.5 25.5s-72.833 40-101.5 69-51.5 63-68.5 102-25.5 80.833-25.5 125.5 8.5 86.5 25.5 125.5 39.833 73 68.5 102 62.5 52 101.5 69 80.5 25.5 124.5 25.5 85.5-8.5 124.5-25.5 73-40 102-69 51.833-63 68.5-102 25-80.833 25-125.5-8.333-86.5-25-125.5-39.5-73-68.5-102-63-52-102-69-80.5-25.5-124.5-25.5v0z" />
<glyph unicode="&#x49;" glyph-name="I" data-tags="I" d="M206 504.667h149.001c3.333 0 6-1.333 8-4s3-6 3-10v-264c0-3.333 1.5-6.333 4.5-9s6.167-4 9.5-4h262c4 0 7.5 1.333 10.5 4s4.5 5.667 4.5 9v264c0 4 1 7.333 3 10s4.667 4 8 4h148c6 0 10 2.5 12 7.5s1 9.5-3 13.5l-305 307c-2.667 2.667-5.667 4-9 4s-6.333-1.333-9-4l-305-307c-4-4-4.833-8.5-2.5-13.5s6.166-7.5 11.499-7.5v0zM834.001 118.667h-646c-3.333 0-6.333-1.5-9-4.5s-4-6.167-4-9.5v-71c0-3.333 1.333-6.5 4-9.5s5.667-4.5 9-4.5h646c4 0 7.333 1.5 10 4.5s4 6.167 4 9.5v71c0 3.333-1.333 6.5-4 9.5s-6 4.5-10 4.5v0z" />
<glyph unicode="&#x4a;" glyph-name="J" data-tags="J" d="M506 835.667c-36.667 0-72.007-4.659-106.007-13.992s-66-22.5-96-39.5-57.167-37.5-81.5-61.5-45.5-50.667-63.5-80c-2-2.667-4.5-4.334-7.5-5.001s-5.833 0.333-8.5 3l-72 72c-3.333 3.333-7 4.166-11 2.499s-6-4.834-6-9.501v-245c0-2.667 0.833-5.334 2.5-8.001s4.167-4 7.5-4h245c4.667 0 7.834 2.333 9.501 7s0.834 8.334-2.499 11.001l-98 99c-1.333 1.333-2.166 3.166-2.499 5.499s-0.166 4.5 0.501 6.5c14.667 26 32 49.667 52 71s42.333 39.666 67 54.999 51.334 27.166 80.001 35.499 59 12.5 91 12.5c44 0 85.5-8.5 124.5-25.5s73.167-40.167 102.5-69.5 52.666-63.666 69.999-102.999 26-81 26-125-8.667-85.5-26-124.5-40.666-73.167-69.999-102.5-63.5-52.5-102.5-69.5-80.5-25.5-124.5-25.5c-35.333 0-68.666 5.167-99.999 15.5s-60 24.666-86 42.999-49 40.333-69 66-36.333 53.5-49 83.5c-0.667 2-1.834 3.667-3.501 5s-3.5 2-5.5 2h-70c-3.333 0-6-1.5-8-4.5s-2.667-6.167-2-9.5c13.333-41.333 32.5-79.5 57.5-114.5s54.667-65.333 89-91 72.333-45.667 114-60 85.834-21.5 132.501-21.5c56.667 0 110 10.667 160 32s93.333 50.666 130 87.999 65.667 80.666 87 129.999 32 102 32 158-10.833 108.833-32.5 158.5-51.167 93-88.5 130-80.666 66.333-129.999 88-102 32.5-158 32.5v0zM518.993 610.675l-3.999-0.002-42 1c-3.333 0-6-1.167-8-3.5s-3-4.833-3-7.5v-203c0-2 0.5-3.833 1.5-5.5s2.5-2.834 4.5-3.501l189-112c2-2 4.5-2.667 7.5-2s5.167 2.334 6.5 5.001l24 39c1.333 2 1.666 4.333 0.999 7s-2.334 5-5.001 7l-159 95c-1.333 0.667-2.666 1.834-3.999 3.501s-2 3.167-2 4.5v160c0 6.667-1.167 10.834-3.5 12.501l-3.5 2.5z" />
<glyph unicode="&#x4b;" glyph-name="K" data-tags="K" d="M521 833.667c-56 0-108.5-10.667-157.5-32s-91.833-50.333-128.5-87-65.5-79.667-86.5-129-31.5-102.333-31.5-159c0-56 10.5-108.667 31.5-158s49.833-92.5 86.5-129.5 79.5-66.167 128.5-87.5 101.5-32 157.5-32 108.5 10.667 157.5 32 91.833 50.5 128.5 87.5 65.667 80.167 87 129.5 32 102 32 158c0 56.667-10.667 109.667-32 159s-50.333 92.333-87 129-79.5 65.667-128.5 87-101.5 32-157.5 32v0zM521 105.667c-44 0-85.5 8.333-124.5 25s-73 39.667-102 69-51.833 63.5-68.5 102.5-25 80.5-25 124.5c0 44.667 8.333 86.5 25 125.5s39.5 73.167 68.5 102.5 63 52.333 102 69 80.5 25 124.5 25 85.333-8.333 124-25 72.5-39.667 101.5-69 52-63.5 69-102.5 25.5-80.833 25.5-125.5c0-44-8.5-85.5-25.5-124.5s-40-73.167-69-102.5-62.833-52.333-101.5-69-80-25-124-25v0zM558 479.667l-37.002 228-33-229c-9.333-6-16.666-13.833-21.999-23.5s-8-20.167-8-31.5c0-18 6.333-33.333 19-46s28-19 46-19c18.667 0 34.334 6.333 47.001 19s19 28 19 46c0 12-2.833 22.833-8.5 32.5s-13.167 17.5-22.5 23.5v0zM616.998 428.667c0-6.667-0.832-13.333-2.499-20s-4.167-12.667-7.5-18l162-119c12.667 22 22.334 47.333 29.001 76s10 56.667 10 84c0 38-6.833 74-20.5 108s-32.334 64-56.001 90-51.334 47-83.001 63-65.5 25-101.5 27l37-228c10-6.667 18-15.5 24-26.5s9-23.167 9-36.5v0z" />
<glyph unicode="&#x4c;" glyph-name="L" data-tags="L" d="M498 356.667l15.998 15.998 35 31 189 168h9c11.333 0 27 2.667 47 8s40 18.333 60 39c23.333 23.333 35.5 52.333 36.5 87s-1.167 67.667-6.5 99c0 2.667-0.333 5-1 7s-1 4-1 6c-1.333-1.333-2.666-3-3.999-5s-3-4.333-5-7c-8.667-12-18.667-21.667-30-29s-24-11.333-38-12c-1.333-0.667-3-1-5-1h-6c-7.333 0-14.166 0.5-20.499 1.5s-12.166 1.833-17.499 2.5l-13.5 2c-4.333 0.667-8.5 1-12.5 1-5.333 0-11.333-0.833-18-2.5s-14.667-6.167-24-13.5c-16-13.333-25.667-30.666-29-51.999s-5-36.666-5-45.999l-245-259-57-56.5-57.5-59-54.5-57.5c-17.333-18.667-33.333-36.667-48-54-42.667-52-64.834-85.667-66.501-101l-2.5-23c0.667 0 1.334-0.167 2.001-0.5s1.334-0.5 2.001-0.5c7.333 0 22.166 5.833 44.499 17.5s58.166 39.5 107.499 83.5c34.667 30 71 63.667 109 101l110 109zM861.998 579.665c-21.333-14.667-41.499-24-60.499-28s-34.5-6-46.5-6l-257-250-112.5-110.5c-35-34.333-67.5-64.833-97.5-91.5 6.667-2.667 13.5-4.5 20.5-5.5s13.833-1.5 20.5-1.5v0c17.333 0 34 3.333 50 10s30 16 42 28l26 26c8 8 17.333 14.167 28 18.5s22 6.5 34 6.5 23.333-2.167 34-6.5 20-10.5 28-18.5l93-93c12.667-12.667 27-22.334 43-29.001s32.667-10 50-10 33.833 3.167 49.5 9.5 29.5 15.5 41.5 27.5l4 4c31.333 31.333 55 67.833 71 109.5s24.333 85.5 25 131.5-6.333 92.833-21 140.5-36.334 93.834-65.001 138.501v0zM797.999 434.665c4 4.667 8.667 8 14 10s11 3 17 3 11.667-1 17-3 10-5.333 14-10c4.667-4 8-8.667 10-14s3-11 3-17-1-11.667-3-17-5.333-10.333-10-15c-4-4-8.667-7.167-14-9.5s-11-3.5-17-3.5-11.667 1.167-17 3.5-10 5.5-14 9.5c-4.667 4.667-8 9.667-10 15s-3 11-3 17 1 11.667 3 17 5.333 10 10 14v0zM856.999 179.665c-4.667-5.333-10.334-9.333-17.001-12s-13.667-4-21-4-14.166 1.333-20.499 4-12.166 6.667-17.499 12-9.333 11.333-12 18-4 13.334-4 20.001c0 7.333 1.333 14.333 4 21s6.667 12.667 12 18c5.333 4.667 11.166 8.334 17.499 11.001s13.166 4 20.499 4 14.333-1.333 21-4 12.334-6.334 17.001-11.001c5.333-5.333 9.333-11.333 12-18s4-13.667 4-21c0-6.667-1.333-13.334-4-20.001s-6.667-12.667-12-18v0zM348.999 398.665l270 278.001c0 10.667 1.5 25.667 4.5 45s10.167 37.666 21.5 54.999c-36 18.667-73 33-111 43s-76.333 15-115 15c-48 0-93.333-8.333-136-25s-79.667-40.667-111-72c-32-32-56-69.167-72-111.5s-24-86.833-24-133.5 7.5-94.167 22.5-142.5 37.833-94.5 68.5-138.5l82 87 100 100zM430.999 749.666c4 4 8.667 7.167 14 9.5s11 3.5 17 3.5 11.667-1.167 17-3.5 10.333-5.5 15-9.5c4-4.667 7.167-9.667 9.5-15s3.5-11 3.5-17-1.167-11.667-3.5-17-5.5-10-9.5-14c-4.667-4-9.667-7.167-15-9.5s-11-3.5-17-3.5-11.667 1.167-17 3.5-10 5.5-14 9.5c-8.667 8.667-13 19.167-13 31.5s4.333 22.833 13 31.5v0zM241.999 710.666c4 4 8.667 7.167 14 9.5s11 3.5 17 3.5 11.667-1.167 17-3.5 10.333-5.5 15-9.5c4-4 7.167-8.833 9.5-14.5s3.5-11.5 3.5-17.5c0-5.333-1.167-10.833-3.5-16.5s-5.5-10.5-9.5-14.5c-4.667-4-9.667-7.167-15-9.5s-11-3.5-17-3.5-11.667 1.167-17 3.5-10 5.5-14 9.5c-4.667 4-8 8.833-10 14.5s-3 11.167-3 16.5c0 6 1 11.833 3 17.5s5.333 10.5 10 14.5v0zM131.999 505.666c0 7.333 1.5 14.166 4.5 20.499s6.833 12.166 11.5 17.499c5.333 5.333 11.333 9.333 18 12s13.334 4 20.001 4c7.333 0 14.333-1.333 21-4s12.667-6.667 18-12c4.667-5.333 8.5-11.166 11.5-17.499s4.5-13.166 4.5-20.499-1.5-14.333-4.5-21-6.833-12.334-11.5-17.001c-5.333-5.333-11.333-9.333-18-12s-13.667-4-21-4c-6.667 0-13.334 1.333-20.001 4s-12.667 6.667-18 12c-4.667 4.667-8.5 10.334-11.5 17.001s-4.5 13.667-4.5 21v0z" />
<glyph unicode="&#x4d;" glyph-name="M" data-tags="M" d="M848 839.667h-668.001c-19.333 0-36.166-7.167-50.499-21.5s-21.5-31.5-21.5-51.5v-601c0-20 7.167-37.167 21.5-51.5s31.166-21.5 50.499-21.5h17v-56c0-4.667 1.333-8.667 4-12s6.334-5 11.001-5h115c4.667 0 8.667 1.667 12 5s5 7.333 5 12v56h341v-56c0-4.667 1.5-8.667 4.5-12s6.833-5 11.5-5h115c4.667 0 8.5 1.667 11.5 5s4.5 7.333 4.5 12v56h16c20 0 36.667 7.167 50 21.5s20 31.5 20 51.5v601c2 20-4.167 37.167-18.5 51.5s-31.5 21.5-51.5 21.5v0zM190.999 207.667c0-2.667-1-5-3-7s-4.333-3-7-3h-51c-2.667 0-4.834 1-6.501 3s-2.5 4.333-2.5 7v64c0 2.667 0.833 4.834 2.5 6.501s3.834 2.5 6.501 2.5h51c2.667 0 5-0.833 7-2.5s3-3.834 3-6.501v-64zM190.999 689.667c0-2.667-1-5-3-7s-4.333-3-7-3h-51c-2.667 0-4.834 1-6.501 3s-2.5 4.333-2.5 7v63c0 2.667 0.833 5 2.5 7s3.834 3 6.501 3h51c2.667 0 5-1 7-3s3-4.333 3-7v-63zM646.999 318.667c-32-1.333-60.832 6.665-86.499 23.998s-44.167 40.333-55.5 69l-59 25c-4 2-7.167 4.833-9.5 8.5s-3.833 7.5-4.5 11.5c0 4.667 1.167 8.834 3.5 12.501s5.166 6.5 8.499 8.5l58 30c8.667 28.667 25.167 52.834 49.5 72.501s52.5 29.834 84.5 30.501c40.667 2 75.834-10.833 105.501-38.5s45.167-61.5 46.5-101.5c2-40.667-10.833-75.834-38.5-105.501s-61.834-45.167-102.501-46.5v0z" />
<glyph unicode="&#x4e;" glyph-name="N" data-tags="N" d="M339 361.667c11.333 0 22.666 0.499 33.999 1.499s22 2.167 32 3.5v259c-10 1.333-20.667 2.333-32 3s-22.666 1-33.999 1c-64.667 0-119.834-11.667-165.501-35s-68.5-51.666-68.5-84.999v-27c0-33.333 22.833-61.833 68.5-85.5s100.834-35.5 165.501-35.5v0zM339 226.666c11.333 0 22.667 0.501 34 1.501s22 2.167 32 3.5v76c-10-1.333-20.5-2.5-31.5-3.5s-22.167-1.5-33.5-1.5c-56.667 0-106.334 9.167-149.001 27.5s-69.667 41.166-81 68.499c-1.333-4-2.5-8-3.5-12s-1.5-8.333-1.5-13v-26c0-33.333 22.833-61.833 68.5-85.5s100.834-35.5 165.501-35.5v0zM405.001 166.667v6.002c-10-2-20.5-3.333-31.5-4s-22.167-1-33.5-1c-56.667 0-106.334 9.167-149.001 27.5s-69.667 41.166-81 68.499c-1.333-4-2.5-8-3.5-12s-1.5-8.333-1.5-13v-26c0-33.333 23-61.833 69-85.5s101.333-35.5 166-35.5c12.667 0 25.167 0.5 37.5 1.5s24.5 2.5 36.5 4.5c-3.333 6.667-5.666 13.667-6.999 21s-2 14.666-2 21.999v26zM677.001 834.669c-64.667 0-119.834-11.833-165.501-35.5s-68.5-52.167-68.5-85.5v-26c0-33.333 22.833-61.833 68.5-85.5s100.834-35.5 165.501-35.5 120 11.833 166 35.5 69 52.167 69 85.5v26c0 33.333-23 61.833-69 85.5s-101.333 35.5-166 35.5v0zM678.001 507.669c-56 0-105.499 9.167-148.499 27.5s-70.167 41.166-81.5 68.499c-1.333-4-2.5-8-3.5-12s-1.5-8.333-1.5-13v-26c0-33.333 22.833-61.833 68.5-85.5s100.834-35.5 165.501-35.5 120 11.833 166 35.5 69 52.167 69 85.5v26c0 4.667-0.333 9-1 13s-2 8-4 12c-10.667-27.333-37.334-50.166-80.001-68.499s-92.334-27.5-149.001-27.5v0zM678.002 372.669c-56 0-105.499 9.167-148.499 27.5s-70.167 41.166-81.5 68.499c-1.333-4-2.5-8-3.5-12s-1.5-8.333-1.5-13v-26c0-33.333 22.833-61.833 68.5-85.5s100.834-35.5 165.501-35.5 120 11.833 166 35.5 69 52.167 69 85.5v26c0 4.667-0.333 9-1 13s-2 8-4 12c-10.667-27.333-37.334-50.166-80.001-68.499s-92.334-27.5-149.001-27.5v0zM678.003 230.669c-56 0-105.499 9.167-148.499 27.5s-70.167 41.166-81.5 68.499c-1.333-4-2.5-8.167-3.5-12.5s-1.5-8.5-1.5-12.5v-26c0-33.333 22.833-61.833 68.5-85.5s100.834-35.5 165.501-35.5 120 11.833 166 35.5 69 52.167 69 85.5v26c0 4-0.333 8.167-1 12.5s-2 8.5-4 12.5c-10.667-27.333-37.334-50.166-80.001-68.499s-92.334-27.5-149.001-27.5v0zM678.004 95.669c-56 0-105.499 9.167-148.499 27.5s-70.167 41.166-81.5 68.499c-1.333-4-2.5-8.167-3.5-12.5s-1.5-8.5-1.5-12.5v-26c0-33.333 22.833-61.833 68.5-85.5s100.834-35.5 165.501-35.5 120 11.833 166 35.5 69 52.167 69 85.5v26c0 4-0.333 8.167-1 12.5s-2 8.5-4 12.5c-10.667-27.333-37.334-50.166-80.001-68.499s-92.334-27.5-149.001-27.5v0z" />
<glyph unicode="&#x4f;" glyph-name="O" data-tags="O" d="M504 222.667c2.667-2.667 5.664-4 8.997-4s6.333 1.333 9 4l305 304c4 4.667 4.833 9.5 2.5 14.5s-6.166 7.5-11.499 7.5h-148c-4 0-7.167 1.333-9.5 4s-3.5 5.667-3.5 9v262c0 4-1.333 7-4 9s-5.667 3-9 3h-262c-3.333 0-6.166-1-8.499-3s-3.5-5-3.5-9v-262c0-3.333-1.333-6.333-4-9s-6-4-10-4h-148c-5.333 0-9.166-2.5-11.499-7.5s-1.5-9.833 2.5-14.5l305-304zM847.997 105.667c0 3.333-1.167 6.333-3.5 9s-5.5 4-9.5 4h-644c-3.333 0-6.333-1.333-9-4s-4-5.667-4-9v-70c0-4 1.333-7.167 4-9.5s5.667-3.5 9-3.5h644c4 0 7.167 1.167 9.5 3.5s3.5 5.5 3.5 9.5v70z" />
<glyph unicode="&#x50;" glyph-name="P" data-tags="P" d="M604 210.667h-258c-4 0-7.5-1.333-10.5-4s-4.5-6-4.5-10v-25c0-4.667 1.5-8.334 4.5-11.001s6.5-4 10.5-4h258c4 0 7.333 1.333 10 4s4 6.334 4 11.001v25c0 4-1.333 7.333-4 10s-6 4-10 4v0zM658 328.667h-312c-4 0-7.5-1.333-10.5-4s-4.5-6-4.5-10v-32c0-4 1.5-7.333 4.5-10s6.5-4 10.5-4h312c4 0 7.5 1.333 10.5 4s4.5 6 4.5 10v32c0 4-1.5 7.333-4.5 10s-6.5 4-10.5 4v0zM911 705.667h-87c-4 0-7.333 1.5-10 4.5s-4 6.5-4 10.5v33c0 12.667-5.667 23.167-17 31.5s-25.333 12.5-42 12.5h-477c-16 0-30.167-4.167-42.5-12.5s-18.5-18.833-18.5-31.5v-33c0-4-1.333-7.5-4-10.5s-6-4.5-10-4.5h-131c-4 0-7.333-1.333-10-4s-4-6-4-10v-443h156c4 0 7.667-1.5 11-4.5s5-6.5 5-10.5v-198c0-4 1.167-7.167 3.5-9.5s5.5-3.5 9.5-3.5h545c4 0 7.167 1.167 9.5 3.5s3.5 5.5 3.5 9.5v198c0 4 1.667 7.5 5 10.5s7 4.5 11 4.5h142c4 0 7.333 1.333 10 4s4 6 4 10v386c0 16-5.667 29.5-17 40.5s-25 16.5-41 16.5v0zM179 491.667c-17.333 0-32 6.167-44 18.5s-18 27.166-18 44.499 6 32.166 18 44.499 26.667 18.5 44 18.5 32.166-6.167 44.499-18.5 18.5-27.166 18.5-44.499-6.167-32.166-18.5-44.499-27.166-18.5-44.499-18.5v0zM740 91.667c0-4-1.5-7.5-4.5-10.5s-6.5-4.5-10.5-4.5h-430c-4 0-7.5 1.5-10.5 4.5s-4.5 6.5-4.5 10.5v312c0 4 1.5 7.333 4.5 10s6.5 4 10.5 4h430c4 0 7.5-1.333 10.5-4s4.5-6 4.5-10v-312zM749 720.667c0-4-1.333-7.5-4-10.5s-6-4.5-10-4.5h-447c-4 0-7.333 1.5-10 4.5s-4 6.5-4 10.5v4c0 8 2.167 14.667 6.5 20s9.5 8 15.5 8h434c6 0 10.667-2.667 14-8s5-12 5-20v-4z" />
<glyph unicode="&#x51;" glyph-name="Q" data-tags="Q" d="M606 408.667c-0.667 0-0.994 0.167-0.994 0.5v0.5c-4.667 4-9.167 8.167-13.5 12.5s-8.5 8.833-12.5 13.5c-24-23.333-50.833-41.5-80.5-54.5s-60.834-19.5-93.501-19.5-63.834 6.5-93.501 19.5-56.5 31.167-80.5 54.5c-4-4.667-8.167-9.167-12.5-13.5s-8.833-8.5-13.5-12.5c-30-24.667-55.333-54.334-76-89.001s-34.667-72.667-42-114c-0.667-5.333-0.334-10.666 0.999-15.999s3.666-10 6.999-14 7.166-7.333 11.499-10 9.166-4 14.499-4h331v2c0 53.333 14.333 101.833 43 145.5s65.667 76.5 111 98.5v0zM406.006 402.667c31.333 0 61 6.333 89 19s52.333 30 73 52 37 47.5 49 76.5 18 60.167 18 93.5-6 64.666-18 93.999-28.333 55-49 77-45 39.333-73 52-57.667 19-89 19c-32 0-61.833-6.333-89.5-19s-51.834-30-72.501-52-37-47.667-49-77-18-60.666-18-93.999 6-64.5 18-93.5 28.333-54.5 49-76.5 44.834-39.333 72.501-52 57.5-19 89.5-19v0zM708.006 391.667c-28.667 0-55.834-5.667-81.501-17s-48-26.5-67-45.5-34-41.333-45-67-16.5-52.834-16.5-81.501c0-29.333 5.5-56.833 16.5-82.5s26-48 45-67 41.333-34.167 67-45.5 52.834-17 81.501-17 55.834 5.667 81.501 17 48 26.5 67 45.5 34 41.333 45 67 16.5 53.167 16.5 82.5c0 28.667-5.5 55.834-16.5 81.501s-26 48-45 67-41.333 34.167-67 45.5-52.834 17-81.501 17v0zM813.006 167.667c0-2.667-0.833-4.667-2.5-6s-3.5-2-5.5-2h-68c-2 0-3.667-0.833-5-2.5s-2-3.834-2-6.501v-68c0-2-1-4-3-6s-4-3-6-3h-26c-2 0-3.5 1-4.5 3s-1.5 4-1.5 6v68c0 2.667-1.167 4.834-3.5 6.501s-4.5 2.5-6.5 2.5h-68c-2 0-4 0.667-6 2s-3 3.333-3 6v25c0 2.667 1 4.834 3 6.501s4 2.5 6 2.5h68c2 0 4.167 0.833 6.5 2.5s3.5 3.5 3.5 5.5v68c0 2 0.5 4.167 1.5 6.5s2.5 3.5 4.5 3.5h26c2 0 4-1.167 6-3.5s3-4.5 3-6.5v-68c0-2 0.667-3.833 2-5.5s3-2.5 5-2.5h68c2 0 3.833-0.833 5.5-2.5s2.5-3.834 2.5-6.501v-25z" />
<glyph unicode="&#x52;" glyph-name="R" data-tags="R" d="M918 194.667c-1.333 5.333-3.668 10.339-7.001 15.006s-8 8.667-14 12l-166 98h-1c-2.667 1.333-6 2.5-10 3.5s-8.333 1.5-13 1.5c-6.667 0-13-1-19-3s-11.667-5.333-17-10l-49-50c-0.667-0.667-1.5-1.167-2.5-1.5s-2.167-0.833-3.5-1.5c-1.333 0-2.333-0.167-3-0.5s-1.334-0.5-2.001-0.5l-11 2c-3.333 0.667-7.666 2.167-12.999 4.5s-11.333 5.166-18 8.499-14.167 7.666-22.5 12.999-17.5 11.666-27.5 18.999-20.833 16.166-32.5 26.499-23.834 21.833-36.501 34.5c-13.333 13.333-25 25.666-35 36.999s-18.667 22-26 32-13.666 19.167-18.999 27.5-9.666 15.833-12.999 22.5c-4 8-7.167 15.333-9.5 22s-4.166 13-5.499 19c0 1.333 0.167 2.5 0.5 3.5s0.5 2.167 0.5 3.5c0.667 1.333 1.167 2.5 1.5 3.5s0.833 1.5 1.5 1.5l42 43c4 3.333 7.167 7.333 9.5 12s4.166 9.667 5.499 15 1.5 10.5 0.5 15.5-2.5 9.833-4.5 14.5l-92 175c-2 2.667-4.333 5.334-7 8.001l-8 8c-2.667 2-5.667 3.5-9 4.5s-7 1.5-11 1.5c-4.667 0-9.334-1-14.001-3s-9-5-13-9l-114-114c-3.333-2.667-6.166-5.667-8.499-9s-4.5-7.333-6.5-12c-2-4-3.667-8-5-12s-2.333-8-3-12v-5.5c0-3-0.333-6.833-1-11.5 0-5.333 0.333-11.5 1-18.5s1.667-15.167 3-24.5c1.333-8.667 3.333-18.5 6-29.5s6-22.5 10-34.5c4-12.667 9-26 15-40s13-28.667 21-44 17.333-31.333 28-48 22.667-34 36-52 28.166-36.5 44.499-55.5 34.5-38.167 54.5-57.5c25.333-26 49.833-49 73.5-69s46.834-37.333 69.501-52c22-14.667 43-27.334 63-38.001s39-19.667 57-27c17.333-7.333 33.5-13.333 48.5-18s28.5-8 40.5-10 22.5-3.5 31.5-4.5 16.167-1.5 21.5-1.5c2 0 4 0.167 6 0.5s3.667 0.5 5 0.5h5c4 0.667 8 1.667 12 3s8.333 3 13 5c4 2 7.667 4.167 11 6.5s6.333 5.166 9 8.499l114 113c4.667 4.667 8 10 10 16s2.667 12.333 2 19v0z" />
<glyph unicode="&#x53;" glyph-name="S" data-tags="S" d="M288 703.667c0-24.667-8.833-45.833-26.5-63.5s-38.834-26.5-63.501-26.5c-25.333 0-46.833 8.833-64.5 26.5s-26.5 38.834-26.5 63.501c0 25.333 8.833 46.833 26.5 64.5s39.167 26.5 64.5 26.5c24.667 0 45.834-8.833 63.501-26.5s26.5-38.834 26.5-63.501v-1zM288 425.668c0-24.667-8.833-45.834-26.5-63.501s-38.834-26.5-63.501-26.5c-25.333 0-46.833 8.833-64.5 26.5s-26.5 38.834-26.5 63.501c0 25.333 8.833 46.833 26.5 64.5s39.167 26.5 64.5 26.5c24.667 0 45.834-8.833 63.501-26.5s26.5-39.167 26.5-64.5v0zM288 147.668c0-24.667-8.833-45.834-26.5-63.501s-38.834-26.5-63.501-26.5c-25.333 0-46.833 8.833-64.5 26.5s-26.5 38.834-26.5 63.501c0 25.333 8.833 46.833 26.5 64.5s39.167 26.5 64.5 26.5c24.667 0 45.834-8.833 63.501-26.5s26.5-39.167 26.5-64.5v0zM898 784.668h-519c-5.333 0-9.833-2.167-13.5-6.5s-5.5-9.5-5.5-15.5v-117c0-6 1.833-10.833 5.5-14.5s8.167-5.5 13.5-5.5h519c5.333 0 10 1.833 14 5.5s6 8.5 6 14.5v117c0 6-2 11.167-6 15.5s-8.667 6.5-14 6.5v0zM898 504.668h-519c-5.333 0-9.833-1.833-13.5-5.5s-5.5-8.5-5.5-14.5v-117c0-6 1.833-10.833 5.5-14.5s8.167-5.5 13.5-5.5h519c5.333 0 10 1.833 14 5.5s6 8.5 6 14.5v117c0 6-2 10.833-6 14.5s-8.667 5.5-14 5.5v0zM898 226.668h-519c-5.333 0-9.833-1.833-13.5-5.5s-5.5-8.5-5.5-14.5v-117c0-6 1.833-11.167 5.5-15.5s8.167-6.5 13.5-6.5h519c5.333 0 10 2.167 14 6.5s6 9.5 6 15.5v117c0 6-2 10.833-6 14.5s-8.667 5.5-14 5.5v0z" />
<glyph unicode="&#x54;" glyph-name="T" data-tags="T" d="M316 317.667c-6 6-10.498 8.5-13.498 7.5s-5.167-2.5-6.5-4.5c-18-17.333-34.833-39.833-50.5-67.5s-28.667-54-39-79-17-45.833-20-62.5-0.167-23 8.5-19c60.667 31.333 102.5 49.5 125.5 54.5s52.5 25.167 88.5 60.5c1.333 1.333 2.666 3.5 3.999 6.5s-1.334 7.833-8.001 14.5l-89 89zM701.002 318.667c-1.333 5.333-0.828 9.325 1.505 11.992s4.166 4.667 5.499 6c39.333 43.333 74.5 88.833 105.5 136.5s55.333 93.334 73 137.001 27.5 83.334 29.5 119.001-6 62.834-24 81.501c-18.667 18.667-45.334 26.834-80.001 24.501s-73.334-12.666-116.001-30.999-87.5-43.166-134.5-74.499-91.833-66.666-134.5-105.999c-1.333-1.333-3.833-3-7.5-5s-8.167-2.333-13.5-1l-54 12c-7.333 2-15.5 1.667-24.5-1s-16.167-6.667-21.5-12l-195-195c-5.333-5.333-7.166-10.333-5.499-15s6.167-7.667 13.5-9l141-22c7.333-1.333 15.666-0.5 24.999 2.5s16.666 7.167 21.999 12.5l4.5 2.5c3 1.667 6.167 0.834 9.5-2.499l154-154c3.333-4 4.166-7.5 2.499-10.5l-2.5-4.5c-5.333-5.333-9.5-12.666-12.5-21.999s-3.833-17.666-2.5-24.999l22-141c1.333-8 4.333-12.667 9-14s9.667 0.667 15 6l194 195c6 5.333 10.167 12.666 12.5 21.999s2.833 17.666 1.5 24.999l-13 51zM658.007 570.659c-16.667 16.667-25 36.668-25 60.001s8.333 43.333 25 60 36.667 25 60 25 43-8.333 59-25c16.667-16 25-35.833 25-59.5s-8.333-43.834-25-60.501c-16-16-35.667-24-59-24s-43.333 8-60 24v0z" />
<glyph unicode="&#x55;" glyph-name="U" data-tags="U" d="M889 184.667l-377.999 379.001c9.333 35.333 9.5 71.5 0.5 108.5s-27.167 69.167-54.5 96.5c-28 28-60.167 46.5-96.5 55.5s-72.166 8.833-107.499-0.5l119-120-31-116-117-31-119 119c-9.333-35.333-9.5-71.333-0.5-108s27.167-68.667 54.5-96c29.333-29.333 63.333-48.166 102-56.499s76-6.5 112 5.5l376-376c9.333-10 20.166-17.333 32.499-22s24.833-7 37.5-7 25.167 2.333 37.5 7 23.166 12 32.499 22c19.333 19.333 29 42.666 29 69.999s-9.667 50.666-29 69.999v0z" />
<glyph unicode="&#x56;" glyph-name="V" data-tags="V" d="M779 406.667c-28.667 0-55.834-5.5-81.501-16.5s-48-26.167-67-45.5-34.167-41.833-45.5-67.5-17-52.834-17-81.501c0-29.333 5.667-56.833 17-82.5s26.5-48.167 45.5-67.5 41.333-34.5 67-45.5 52.834-16.5 81.501-16.5c29.333 0 56.666 5.5 81.999 16.5s47.666 26.167 66.999 45.5 34.5 41.833 45.5 67.5 16.5 53.167 16.5 82.5c0 28.667-5.5 55.834-16.5 81.501s-26.167 48.167-45.5 67.5-41.666 34.5-66.999 45.5-52.666 16.5-81.999 16.5v0zM883 182.667c0-2.667-0.5-5-1.5-7s-2.833-3-5.5-3h-68c-2 0-3.833-0.5-5.5-1.5s-2.5-2.833-2.5-5.5v-68c0-2-0.833-3.833-2.5-5.5s-3.5-2.5-5.5-2.5h-26c-2 0-3.667 0.833-5 2.5s-2 3.5-2 5.5v68c0 2.667-1 4.5-3 5.5s-4 1.5-6 1.5h-68c-2 0-4 1-6 3s-3 4.333-3 7v26c0 2 1 4 3 6s4 3 6 3h68c2 0 4 0.667 6 2s3 3 3 5v68c0 2.667 0.667 4.5 2 5.5s3 1.5 5 1.5h26c2 0 3.833-0.5 5.5-1.5s2.5-2.833 2.5-5.5v-68c0-2 0.833-3.667 2.5-5s3.5-2 5.5-2h68c2.667 0 4.5-1 5.5-3s1.5-4 1.5-6v-26zM352 327.667c6.667-15.333 22.001-28.167 46.001-38.5s51.667-15.5 83-15.5c7.333 0 14.166 0.167 20.499 0.5s12.5 1.166 18.5 2.499c2 6.667 4.5 13.5 7.5 20.5s6.167 13.5 9.5 19.5c-8.667-2-17.5-3.5-26.5-4.5s-18.5-1.5-28.5-1.5c-36.667 0-67.834 6.667-93.501 20s-38.5 29.333-38.5 48v15c0 2.667 0.167 5.167 0.5 7.5s0.833 4.5 1.5 6.5c6.667-15.333 22-28.166 46-38.499s51.667-15.5 83-15.5c18.667 0 36.167 1.833 52.5 5.5s30.833 8.834 43.5 15.501c4.667 5.333 9.834 10.666 15.501 15.999s11.5 10.333 17.5 15l1 2v-1c22.667 17.333 48 30.833 76 40.5s57.333 14.5 88 14.5c38 0 73.167-7.5 105.5-22.5s61.833-35.167 88.5-60.5v227c0 24-9.5 44.5-28.5 61.5s-40.833 25.5-65.5 25.5h-366l-91 89h-274c-25.333 0-46.666-8.667-63.999-26s-26-38-26-62v-525c0-24 8.667-44.833 26-62.5s38.666-26.5 63.999-26.5h389c-5.333 12.667-10 25.167-14 37.5s-7 25.166-9 38.499c-4.667-0.667-9.167-1.167-13.5-1.5s-9.166-0.5-14.499-0.5c-36.667 0-67.834 6.833-93.501 20.5s-38.5 29.834-38.5 48.501v15c0 2 0.167 4.167 0.5 6.5s0.833 4.833 1.5 7.5c6.667-16 22-29.167 46-39.5s51.667-15.5 83-15.5c4.667 0 9.167 0.167 13.5 0.5s8.833 0.833 13.5 1.5c0 5.333 0.167 10.833 0.5 16.5s0.833 11.5 1.5 17.5c-4.667-0.667-9.167-1.167-13.5-1.5s-9.166-0.5-14.499-0.5c-36.667 0-67.834 6.667-93.501 20s-38.5 29.333-38.5 48v15c0 2.667 0.167 5.167 0.5 7.5s0.833 4.5 1.5 6.5v0zM350.001 546.666c0 18.667 13 34.667 39 48s57.333 20 94 20 67.834-6.667 93.501-20 38.5-29.333 38.5-48v-15c0-18.667-12.833-34.667-38.5-48s-56.834-20-93.501-20-68 6.667-94 20-39 29.333-39 48v15zM350.001 469.666c0 2.667 0.167 5.167 0.5 7.5s0.833 4.5 1.5 6.5c6.667-15.333 22-28.166 46-38.499s51.667-15.5 83-15.5c32 0 60.167 5.167 84.5 15.5s39.833 23.166 46.5 38.499c0.667-2 1.334-4.167 2.001-6.5s1-4.833 1-7.5v-14c0-19.333-12.833-35.666-38.5-48.999s-56.834-20-93.501-20-68 6.667-94 20-39 29.666-39 48.999v14zM159.001 430.666c0 18.667 12.667 34.666 38 47.999s56.333 20 93 20c6 0 12.167-0.167 18.5-0.5s11.833-0.833 16.5-1.5v-146c-4.667-1.333-10.167-2.166-16.5-2.499s-12.5-0.5-18.5-0.5c-36.667 0-67.667 6.667-93 20s-38 29.333-38 48v15zM159.001 354.665c0 2 0.166 4.166 0.499 6.499s0.833 4.833 1.5 7.5c6.667-15.333 21.834-28.166 45.501-38.499s51.167-15.5 82.5-15.5c6.667 0 13.167 0.167 19.5 0.5s11.833 0.833 16.5 1.5v-43c-4.667-0.667-10.167-1.167-16.5-1.5s-12.5-0.5-18.5-0.5c-36.667 0-67.667 6.667-93 20s-38 29.333-38 48v15zM291 195.664c-36.667 0-67.835 6.665-93.502 19.998s-38.5 29.333-38.5 48v15c0 2 0.167 4.167 0.5 6.5s0.833 4.833 1.5 7.5c6.667-16 21.834-29.167 45.501-39.5s51.167-15.5 82.5-15.5c6.667 0 13.167 0.333 19.5 1s11.833 1.334 16.5 2.001v-18c0-4 0.667-8 2-12l4-12c-6.667-1.333-13.167-2.166-19.5-2.499s-13.166-0.5-20.499-0.5v0z" />
<glyph unicode="&#x57;" glyph-name="W" data-tags="W" d="M510 222.667c26.667 0 51.834 5 75.501 15s44.334 23.833 62.001 41.5 31.5 38.334 41.5 62.001 15 48.834 15 75.501-5 51.834-15 75.501-23.833 44.334-41.5 62.001-38.334 31.5-62.001 41.5-48.834 15-75.501 15-51.834-5-75.501-15-44.334-23.833-62.001-41.5-31.5-38.334-41.5-62.001-15-48.834-15-75.501 5-51.834 15-75.501 23.833-44.334 41.5-62.001 38.334-31.5 62.001-41.5 48.834-15 75.501-15v0zM887 573.667c-19.333 52-47.33 97.16-83.997 135.493s-78.334 68.166-125.001 89.499-96.334 33.333-149.001 36-104.667-5.666-156-24.999-96-47.166-134-83.499-67.667-77.5-89-123.5-33.666-95.333-36.999-148 4.334-104.667 23.001-156c0.667-1.333 0.667-2.666 0-3.999s-2-2-4-2l-50-6c-2-0.667-3.167-2-3.5-4s0.167-3.667 1.5-5l161-90c1.333-1.333 2.666-1.666 3.999-0.999s2.333 1.667 3 3l39 171c0.667 2 0 3.5-2 4.5s-3.667 0.833-5-0.5l-44-32c-0.667-1.333-1.834-1.666-3.501-0.999s-2.5 1.667-2.5 3c-14 38-19.667 76.667-17 116s12 76.166 28 110.499 38.167 65.166 66.5 92.499 61.833 48 100.5 62c38.667 14.667 77.667 20.834 117 18.501s76.5-11.5 111.5-27.5 66.167-38.333 93.5-67 48.333-62.334 63-101.001c11.333-29.333 17.5-59.166 18.5-89.499s-2-59.833-9-88.5-18.167-55.834-33.5-81.501-34-48.5-56-68.5c-4 4.667-8.167 9-12.5 13s-8.833 7.667-13.5 11l-11.5 11.5c-3.667 3.667-7.167 7.834-10.5 12.501-21.333-20.667-45-36.834-71-48.501s-53.333-17.5-82-17.5-56 5.833-82 17.5-49.667 27.5-71 47.5c-3.333-4-7-7.833-11-11.5l-12-11.5c-26-21.333-48.167-47.166-66.5-77.499s-30.5-63.833-36.5-100.5c-0.667-4-0.5-8.333 0.5-13s2.833-9 5.5-13c3.333-3.333 7-6 11-8s8-3 12-3h499c4.667 0 9 1 13 3s7.333 4.667 10 8c2.667 4 4.667 8.167 6 12.5s1.666 8.833 0.999 13.5c-2.667 12.667-5.667 24.834-9 36.501s-7.666 22.834-12.999 33.501c31.333 26.667 58 57.334 80 92.001s38.333 71.5 49 110.5 15.167 79.333 13.5 121-9.834 82.834-24.501 123.501v0z" />
<glyph unicode="&#x58;" glyph-name="X" data-tags="X" d="M444 723.667c-1.333-2.667-2.332-2.834-2.999-0.501s-1.667 2.833-3 1.5l-2-1c-2.667-3.333-6.334-6-11.001-8s-6.667-6-6-12c6 0.667 10.833 2.834 14.5 6.501s7.167 8.167 10.5 13.5v0zM449.001 728.667c0-0.667-0.172-1.498-0.505-2.498s-0.833-1.833-1.5-2.5c0.667 0 1.5-0.167 2.5-0.5s1.5-0.833 1.5-1.5c0-3.333-1.667-4.666-5-3.999s-5-0.666-5-3.999c0.667 0 1.334-0.167 2.001-0.5s0.334-0.833-0.999-1.5c-0.667-0.667-1.667-1-3-1s-2.333-0.667-3-2h6l-2-1.5c-1.333-1-2.666-1.833-3.999-2.5-1.333 0-2.333-0.5-3-1.5s-0.667-2.5 0-4.5c0.667 1.333 1.5 2.166 2.5 2.499s2.167 0.833 3.5 1.5c4 0.667 7.833 1.167 11.5 1.5s6.834 1.166 9.501 2.499c-0.667 0-1.167 0.333-1.5 1s-0.833 1-1.5 1c2 0.667 3.5 1.667 4.5 3s1.167 3 0.5 5c-0.667 0-1.167-0.167-1.5-0.5s-0.833-0.5-1.5-0.5c1.333 3.333 1.333 6.666 0 9.999s-0.333 6.333 3 9l1 2h-6c0.667 0.667 1.5 1.167 2.5 1.5s1.833 0.833 2.5 1.5c-4 0-7.167-1.5-9.5-4.5s-5.166-5.167-8.499-6.5c0.667-2 1.667-2.333 3-1s2 1.666 2 0.999v0zM815.996 451.669l-1-4.999 1-4 1-5-1-6 1-4h2l1 5-1 10 1 3 1-3 1-4 2-2 2 2v6l-2 7v2l1 2 2 5v3l-2-1-2-3-2 2-1 5 1 4 3 1 3-1 2 1 2 3 1 4-1 1c-1.333-0.667-3-1.334-5-2.001s-4-1-6-1l-2-3v-11l-1-5-1-6zM803.996 444.67l4.001 1.999 1 7v5l3 6v3l1 6 2 3 1 4-1 3-3 6-1 3 1 6 2 6-2 4-8 7-2-4-1-9-1-1c1.333-9.333 2.166-18.666 2.499-27.999s0.5-19 0.5-29h1zM732.997 339.669l-3 6h-6l-3-2-2-4-15-19-16-9-3-3-2-3-1-3 1-22-7-19-1-4-1-6 1-3 6-7 9-2 9 7 5 15 20 41 6 26 2 6v-1c0 1.333 0.167 2.333 0.5 3s0.5 1.667 0.5 3v0zM559.997 629.669l6.001 1c-0.667 2-2.834 3.5-6.501 4.5s-5.5-0.167-5.5-3.5c-1.333-0.667-1-1 1-1s3.667-0.333 5-1v0zM554.998 762.669v0 0zM595.998 626.669l1 0.002c2 0.667 4 0.667 6 0s3.667 0.666 5 3.999c-2.667 0-5 0.167-7 0.5s-4 0.166-6-0.501v-2c0-1.333 0.333-2 1-2v0zM501.998 641.671l1-2 1-1h2c2 6 1.333 9.5-2 10.5s-7 1.833-11 2.5l-4-1 1-3 12-6zM483.998 662.671c-4 2-6.332 1.5-6.999-1.5s-1.334-6.167-2.001-9.5l2-3c3.333 0.667 5.833 2.667 7.5 6s1.5 6-0.5 8v0zM553.999 762.671h1.001v1h1l-2-1c-0.667 0-1.5-0.167-2.5-0.5s-1.833-0.5-2.5-0.5l-0.5-0.5c-0.333-0.333-0.833-0.5-1.5-0.5 1.333 0 2.666 0.167 3.999 0.5s2.333 0.833 3 1.5v0zM821 550.671l2-10 1-1v3l-1 3v6l-1 1-1 2-1 1h-1v-2l1-1zM816 551.671l-1-1v-2l1-4 1-1 1 1h1v2l-2 4zM799 586.671l1-6 2-6 3-5 2-7 1-5 1-4 1-2h1v8h3l3-2 1 3-2 5h-3l-4 3-2 6-1 9-3 6-4 4h-1v-4zM826 529.671l-4 2-2-3v-5l1-2v-1l2 2h2l1-1 1-5 3-6h2l-2 9h1l1-1v3l-1 5-3 10-2 1 1-3v-5h-1zM905 514.671c-13.333 48.667-32.167 92.665-56.5 131.998s-53.5 73-87.5 101-72.167 49.5-114.5 64.5-87.833 22.5-136.5 22.5c-56 0-108.5-10.667-157.5-32s-91.833-50.333-128.5-87-65.667-79.667-87-129-32-102-32-158c0-38.667 5.167-75.667 15.5-111s24.5-68.333 42.5-99l-69-209 220 63c29.333-16 60.5-28.5 93.5-37.5s67.167-13.5 102.5-13.5c48.667 0 94.667 8.167 138 24.5s82.333 38.833 117 67.5 64.167 62.5 88.5 101.5 41.5 81.5 51.5 127.5c7.333 34.667 10.5 66.834 9.5 96.501s-4.167 54.834-9.5 75.501v0zM508.999 80.669c-36 0-70.673 5.498-104.006 16.498s-64 26.167-92 45.5v0 1h1l-1 1-4 2h-1c-0.667 0-1.334 0.333-2.001 1l-26 21c-8.667 7.333-16.667 15.333-24 24l-1 1c0 0.667-0.333 1.167-1 1.5l-1 0.5-3.5 3.5c-1 1-1.833 2.167-2.5 3.5 0.667 0 1 0.167 1 0.5v0.5c0 0.667-0.333 1.5-1 2.5s-1.334 1.833-2.001 2.5c0.667 0.667 1.667 1.167 3 1.5s2.333 1.166 3 2.499c1.333 4.667 1 8.834-1 12.501s-3.667 7.834-5 12.501c0.667 0 1.334-0.333 2.001-1l3-3c1.333 2.667 2.333 5.167 3 7.5s1.334 4.833 2.001 7.5v8c0 7.333-1.833 14.333-5.5 21s-4.834 13.334-3.501 20.001c2.667 10 6.167 19.667 10.5 29s7.5 19 9.5 29c0 1.333 0.333 2.5 1 3.5s1.334 1.833 2.001 2.5c0.667 2 1.5 4 2.5 6s1.5 4 1.5 6c0.667 1.333 1 3 1 5v5c0 1.333-0.167 2.666-0.5 3.999s-0.5 2.333-0.5 3c-0.667 0.667-1.167 1.5-1.5 2.5l-0.5 1.5c-0.667 0.667-2 1.834-4 3.501s-4.333 3.167-7 4.5c-2 2-4 3.5-6 4.5l-3 1.5v1l-2 2h-1l-1 1h-1l-2 1h-13v-2c-0.667 0-1-0.167-1-0.5v-0.5l-1-1-1 1c0.667 4-0.333 7.833-3 11.5s-6.334 4.834-11.001 3.501v-5c-3.333 0.667-4 2.167-2 4.5s1.667 4.166-1 5.499c-3.333 0.667-5-0.333-5-3s-1.333-4.667-4-6c3.333 8 4.666 15.333 3.999 22s-3 13-7 19c-2.667 6-6.5 11-11.5 15s-7.5 9.667-7.5 17c-0.667 0.667-1.167 1.334-1.5 2.001s-0.5 1.334-0.5 2.001l-1-0.5c-0.667-0.333-1.334-0.5-2.001-0.5 0-0.667-0.167-1.167-0.5-1.5s-0.833-0.5-1.5-0.5v3.5c0 1 0.333 1.833 1 2.5v2c8.667 38 23.334 73.333 44.001 106s45.834 60.834 75.501 84.501 62.834 42.167 99.501 55.5 75.334 20 116.001 20c9.333 0 18.5-0.333 27.5-1s17.833-1.667 26.5-3c-1.333 0-2.333-0.167-3-0.5s-1.334-0.5-2.001-0.5h1c-0.667-0.667-1.334-1-2.001-1h-2c1.333 0 2.5 0.167 3.5 0.5s2.167 0.5 3.5 0.5h5c-0.667-0.667-1.334-1-2.001-1s-1.334-0.333-2.001-1c-1.333-0.667-2.5-1.334-3.5-2.001s-2.5-1-4.5-1h5c-0.667-2-1.167-3-1.5-3h0.5c-2.667-2-5-3-7-3h-6c0.667 2 2 2.5 4 1.5s3.667-0.5 5 1.5c-7.333 0-14.333-0.833-21-2.5l-21-5.5c-1.333 0-2.5-0.167-3.5-0.5s-1.833-0.833-2.5-1.5l-8-4c-2.667-1.333-5.834-3.166-9.501-5.499s-4.5-4.166-2.5-5.499c1.333-1.333 2.833-2.333 4.5-3s3.167-1.334 4.5-2.001l3-1.5c0.667-0.333 1.334-0.833 2.001-1.5 1.333-0.667 2.333-1.5 3-2.5s1.334-1.833 2.001-2.5c5.333-0.667 9.333 1.166 12 5.499s2 8.5-2 12.5c1.333 0.667 2.5 1.667 3.5 3s2.167 2.333 3.5 3c0.667 1.333 1.667 2.5 3 3.5s3 1.5 5 1.5c-2.667-0.667-4.167-2.167-4.5-4.5s0.167-3.833 1.5-4.5c1.333-1.333 2.833-1.833 4.5-1.5s3.5 1.166 5.5 2.499l6 2c2 0.667 4 0.667 6 0 0-0.667-0.667-1.167-2-1.5s-2.333-0.833-3-1.5c-1.333 0-2.666-0.167-3.999-0.5s-2.666-0.833-3.999-1.5c-2 0-3.333-1.167-4-3.5s-0.334-4.5 0.999-6.5c-0.667 0.667-1.667 1.167-3 1.5s-2.333 0.5-3 0.5c-1.333-8.667-5.666-13.667-12.999-15s-14-0.333-20 3c0.667 0 1.667-0.167 3-0.5s2.666 0.5 3.999 2.5c0 1.333-0.833 2.166-2.5 2.499s-2.5 0.166-2.5-0.501v4c-4.667 1.333-7 0.5-7-2.5v-8.5c-0.667 0-1.667 0.333-3 1s-2.666 1-3.999 1c-6.667-5.333-13.167-9.333-19.5-12s-13.166-5.334-20.499-8.001c-1.333-0.667-2.833-1.167-4.5-1.5s-3.167-0.833-4.5-1.5c4-2 6-5.5 6-10.5s-2-7.167-6-6.5c-10.667 3.333-21 5-31 5s-16-6.333-18-19c0-2-0.667-4-2-6s-1.333-4 0-6c6.667-4.667 14.167-7.167 22.5-7.5s16.166 1.167 23.499 4.5c2.667 0.667 5 2.5 7 5.5s4.333 4.833 7 5.5l8 4 2.5 2.5c1 1 1.833 2.5 2.5 4.5 1.333 0.667 2.833 1.334 4.5 2.001s3.167 1.334 4.5 2.001c2 0 3.833 0.167 5.5 0.5s3.5 0.5 5.5 0.5c1.333 0 2.666 0.167 3.999 0.5s2.666 0.5 3.999 0.5c5.333-5.333 11.666-11 18.999-17s12.666-12.667 15.999-20c1.333 2.667 3 5 5 7s4.667 1.333 8-2c-3.333 6-9.333 11.833-18 17.5s-13.334 12.5-14.001 20.5l23.5-16c7.667-5.333 14.5-13 20.5-23 0.667-0.667 2-1.334 4-2.001s4-0.667 6 0c2 2 3 3.667 3 5s-0.333 2.666-1 3.999c-0.667 0.667-1.334 1.667-2.001 3s-0.334 3 0.999 5c1.333 1.333 2.333 2 3 2s1.334-0.667 2.001-2c4.667-11.333 13.167-16.5 25.5-15.5s21.5-1.167 27.5-6.5c8-6 7.5-12.167-1.5-18.5s-18.5-8.833-28.5-7.5c-5.333 2-10.5 3.5-15.5 4.5s-9.833 2.5-14.5 4.5c-1.333 0-2.5 0.167-3.5 0.5s-1.833 0.5-2.5 0.5h-4c-1.333 0-2.333-0.333-3-1-0.667 0-1.334-0.333-2.001-1s-1-1.334-1-2.001-0.167-1.5-0.5-2.5-0.5-1.833-0.5-2.5l-0.5-1c-0.333-0.667-0.833-1.334-1.5-2.001h-3c-1.333 0-2.666 0.333-3.999 1s-2.5 1.334-3.5 2.001-1.833 1-2.5 1-1.667 0.333-3 1-2.666 1.667-3.999 3c-0.667 0-1.667 0.333-3 1s-2.333 1-3 1c-6 0-11.333 2-16 6s-5.334 9.333-2.001 16c-5.333 2-10.833 3.167-16.5 3.5s-11.167 0.166-16.5-0.501c-2 0-3.667-0.167-5-0.5s-2.666-0.5-3.999-0.5c-8-2.667-15.667-4.334-23-5.001s-15.333-1-24-1c-5.333 0-10-2.5-14-7.5s-7.333-10.167-10-15.5c-0.667-0.667-1.334-1.5-2.001-2.5s-1.334-1.833-2.001-2.5c-3.333-3.333-6.666-6.333-9.999-9s-6.666-4.667-9.999-6c-2-0.667-3.667-1.5-5-2.5s-2.666-1.833-3.999-2.5c-10.667-8-18.167-18.333-22.5-31s-8.166-25.334-11.499-38.001c0-0.667-0.167-1.334-0.5-2.001l-0.5-1c-0.667-0.667-1-1.5-1-2.5v-2.5c0.667-0.667 0.834-1.667 0.501-3s-0.5-2.333-0.5-3v-8l2-1c1.333-0.667 2.5-1.667 3.5-3s1.833-2.666 2.5-3.999l4-8c6.667-21.333 19.834-32.666 39.501-33.999s37.834 1.334 54.501 8.001c1.333 0 2.666 0.167 3.999 0.5s2.666 0.833 3.999 1.5c1.333 0 2.666 0.167 3.999 0.5s2.333 0.5 3 0.5c3.333 0 6-0.333 8-1l3-1 2-4 1-1 1-2 2-2c0.667 0 1.834-0.167 3.501-0.5s3.834-0.5 6.501-0.5 5-0.667 7-2 4-3.333 6-6c2.667-7.333 3-14.666 1-21.999s0.667-14 8-20l1-1.5c0.667-1 1.334-2.167 2.001-3.5 1.333-0.667 2.5-1.834 3.5-3.501s1.833-3.167 2.5-4.5c2-3.333 3.833-7 5.5-11s2.5-7.333 2.5-10c0.667-2 1.334-4.167 2.001-6.5s1-4.166 1-5.499c0.667-0.667 1.167-1.834 1.5-3.501s0.166-3.167-0.501-4.5c0-1.333-0.167-2.5-0.5-3.5s-0.833-1.833-1.5-2.5c-3.333-5.333-6.166-11.166-8.499-17.499s-2.833-12.166-1.5-17.499c2.667-10 6.667-19.667 12-29s9-19 11-29v-3c0.667-0.667 1.167-1.334 1.5-2.001s0.833-1.334 1.5-2.001l1-2 1-1h1l1-1.5c0.667-1 1.334-1.833 2.001-2.5 0-1.333 0.5-2.666 1.5-3.999s1.833-2.666 2.5-3.999c0.667-0.667 1.334-1.667 2.001-3l2-4v-5l-1-2v-2c0.667-0.667 1.167-1.334 1.5-2.001s0.833-1.334 1.5-2.001 1.334-1.5 2.001-2.5 1.334-1.5 2.001-1.5l2-0.5c1.333-0.333 2.666-0.5 3.999-0.5h5c0.667 0 1.334 0.167 2.001 0.5s1 0.833 1 1.5c0.667 0 1.167 0.333 1.5 1l0.5 1c0.667 0.667 2.667 1.167 6 1.5s7.333 0.5 12 0.5l26 13c2.667 2 4.834 4.167 6.501 6.5s2.834 4.166 3.501 5.499c0 0.667 0.667 1.667 2 3s2.666 2.333 3.999 3c2 1.333 3.5 2.833 4.5 4.5s1.833 3.5 2.5 5.5c0 1.333 0.333 2.666 1 3.999s1.334 2.333 2.001 3c1.333 2.667 3.666 4.334 6.999 5.001s5 2.334 5 5.001c1.333 8.667 3.666 17 6.999 25s8 15.667 14 23c1.333 1.333 2.333 2.666 3 3.999l2 4c4 8 7.167 16.167 9.5 24.5s3.166 16.833 2.499 25.5c0 1.333-0.167 2.5-0.5 3.5s-0.5 1.833-0.5 2.5c-4.667 17.333-1.334 31.666 9.999 42.999s25.333 20.666 42 27.999c0 0.667 0.333 1.667 1 3s1 2.333 1 3l4 10.5 4 11.5c0.667 1.333 1.167 2.5 1.5 3.5s0.5 2.167 0.5 3.5c2.667 2 3.834 4.5 3.501 7.5s-0.5 5.833-0.5 8.5c-4.667-2.667-9.5-4-14.5-4s-9.833-0.333-14.5-1h-2.5c-1 0-2.167-0.333-3.5-1-0.667 0.667-1.5 1.167-2.5 1.5l-1.5 0.5c-0.667 0-2 0.667-4 2s-4.333 2.333-7 3c-2 1.333-3.5 2.5-4.5 3.5l-3.5 3.5c-0.667 0.667-1.667 2.167-3 4.5s-2.333 3.833-3 4.5c-1.333 0.667-2.5 1.834-3.5 3.501s-1.833 2.834-2.5 3.501c-3.333 4-6.333 8-9 12s-5 8.333-7 13c-3.333 5.333-6.833 10.5-10.5 15.5s-7.167 10.167-10.5 15.5c-0.667 1.333-1.334 2.5-2.001 3.5s-1.667 2.167-3 3.5c-0.667 0.667-1.334 1.5-2.001 2.5s-1.667 2.167-3 3.5l-4.5 4.5c-1 1-2.167 2.5-3.5 4.5-0.667 0-1 0.333-1 1s0.667 1.334 2 2.001c4.667 2 7.334 0.833 8.001-3.5s3-6.166 7-5.499c0.667-1.333 1.5-2.333 2.5-3s1.833-1.667 2.5-3l2.5-2.5c1-1 1.833-2.167 2.5-3.5 1.333-1.333 2.5-2.666 3.5-3.999s2.167-2.666 3.5-3.999c4.667-5.333 9-10.833 13-16.5s8.333-11.167 13-16.5c0-0.667 0.333-1.5 1-2.5s1.334-2.167 2.001-3.5l2-4c0.667-1.333 1.334-2.333 2.001-3 2.667-15.333 10.5-21.5 23.5-18.5s23.833 6.167 32.5 9.5l14.5 8.5c5 3 7.833 7.5 8.5 13.5 2.667 11.333 0.5 20.666-6.5 27.999s-14.167 14.333-21.5 21c-0.667-6.667-3.667-10.167-9-10.5s-9.333 1.834-12 6.501c-0.667 1.333-1.334 2.333-2.001 3s-1 1.334-1 2.001c0-0.667-0.333-1.334-1-2.001s-1-1.667-1-3c-1.333 4.667-3.5 8.834-6.5 12.501l-8.5 10.5c4 0 7.833-1 11.5-3s7.834-3.667 12.501-5l8-4c8-4 16.333-7.333 25-10s18-3.334 28-2.001c2 0 3.667-0.667 5-2s2.333-3 3-5c0.667-1.333 1.167-2.666 1.5-3.999s0.5-2.666 0.5-3.999v-8c1.333 1.333 2.333 2.666 3 3.999l4 8c0.667 1.333 1.334 3 2.001 5 2.667 8 4 16.5 4 25.5s-1.333 17.833-4 26.5c20-28 35.667-59 47-93s17-69.667 17-107c0-47.333-9-92-27-134s-42.667-78.5-74-109.5-67.833-55.667-109.5-74-86.167-27.5-133.5-27.5h-1zM834.993 472.667v-4l1-1v8l1 3 1 1v3l-1 5-1 4v3l-1-1v-21zM825.993 408.667l-2-3-1-5 1-3 2 2 4 6 8 9h-4l-4-2zM827.993 418.667h-2l-5-4-4 1-2-2v-3l1-2 6 1 7 7zM840.993 460.667v0-1h1v-2h2v-4h-1v-10l1 1v4h1v-5l2-1v-2l1-1v-1l-1-7v-4l-1-2v-4l-1-1v-4h1v-1l-1-4v-2c1.333 8 2.5 16 3.5 24s1.5 16 1.5 24l-1 7v-1l-1-4v-5l-1-2-1 2v15l-1 2h-1l-1-1h-3v-5l1-5zM816.993 422.667h-11l-2-3 2-4h8l3 5v2z" />
<glyph unicode="&#x59;" glyph-name="Y" data-tags="Y" d="M790 729.667l-667.999-290.001c-4.667-2-8.334-5.167-11.001-9.5s-4-8.833-4-13.5v0c0-6.667 2.333-12.5 7-17.5s10.667-7.5 18-7.5l319-3c7.333 0 13.333-2.333 18-7s7-10.667 7-18l-2-320c0-6.667 2.333-12.5 7-17.5s10.667-7.5 18-7.5c4.667 0 9 1.333 13 4s7 6.334 9 11.001l301 663c4.667 10.667 3 20-5 28s-17 9.667-27 5v0z" />
<glyph unicode="&#x5a;" glyph-name="Z" data-tags="Z" d="M697 331.667l-30.002 38.003c-6 8-10.167 12-12.5 12s-7.166-4-14.499-12l-89-99c-3.333-3.333-7.166-4.833-11.499-4.5s-7.5 2.5-9.5 6.5l-131 205c-2.667 3.333-5 3.666-7 0.999s-4.333-6.334-7-11.001l-139-233c-4-6-8.833-8-14.5-6s-8.5 6.333-8.5 13v448c0 4 0.667 7.667 2 11s3.666 5 6.999 5h574c4 0 7.167-1.667 9.5-5s3.5-7 3.5-11v-339c14.667-2 27.5-5.167 38.5-9.5s20.5-9.5 28.5-15.5v452c0 4-0.5 7.833-1.5 11.5s-3.167 5.5-6.5 5.5h-718c-2.667 0-5.667-1.833-9-5.5s-5-7.5-5-11.5v-711c0-4 1.667-7 5-9s6.333-3 9-3h451c-8 14-14.167 29.167-18.5 45.5s-6.5 33.166-6.5 50.499c0 39.333 10.333 75 31 107s47.334 56.667 80.001 74v0zM560.998 586.67c0-15.333 5.333-28.166 16-38.499s23.334-15.5 38.001-15.5c15.333 0 28.333 5.167 39 15.5s16 23.166 16 38.499-5.333 28.333-16 39-23.667 16-39 16c-14.667 0-27.334-5.333-38.001-16s-16-23.667-16-39v0zM785.998 332.67c-49.333 0-91.5-17.667-126.5-53s-52.5-77.666-52.5-126.999 17.5-91.666 52.5-126.999 77.167-53 126.5-53 91.5 17.667 126.5 53 52.5 77.666 52.5 126.999-17.5 91.666-52.5 126.999-77.167 53-126.5 53v0zM876.998 141.67c0-2-0.833-3.667-2.5-5s-3.5-2-5.5-2h-58c-2 0-3.833-0.667-5.5-2s-2.5-3-2.5-5v-58c0-2-0.5-4-1.5-6s-2.5-3-4.5-3h-22c-2 0-3.667 1-5 3s-2 4-2 6v58c0 2-0.667 3.667-2 5s-3 2-5 2h-57c-2 0-4 0.667-6 2s-3 3-3 5v22c0 2 1 3.5 3 4.5s4 1.5 6 1.5h57c2 0 3.667 0.833 5 2.5s2 3.5 2 5.5v58c0 2 0.667 3.667 2 5s3 2 5 2h22c2 0 3.5-0.667 4.5-2s1.5-3 1.5-5v-58c0-2 0.833-3.833 2.5-5.5s3.5-2.5 5.5-2.5h58c2 0 3.833-0.5 5.5-1.5s2.5-2.5 2.5-4.5v-22z" />
<glyph unicode="&#x5b;" glyph-name="bracketleft" data-tags="bracketleft" d="M720 413.667c-30 0-58-5.667-84-17s-48.833-26.833-68.5-46.5-35.167-42.5-46.5-68.5-17-54-17-84 5.667-58.167 17-84.5 26.833-49.166 46.5-68.499 42.5-34.666 68.5-45.999 54-17 84-17 58 5.667 84 17 48.833 26.666 68.5 45.999 35.167 42.166 46.5 68.499 17 54.5 17 84.5-5.667 58-17 84-26.833 48.833-46.5 68.5-42.5 35.167-68.5 46.5-54 17-84 17v0zM845 112.667l-16.001-26.002c-0.667-1.333-2-2.166-4-2.499s-3.667-0.166-5 0.501l-130 76c-0.667 0.667-1.667 1.5-3 2.5s-2 2.167-2 3.5v137c0 2 1 3.833 3 5.5s4 2.5 6 2.5l29-1h2l2.5-1.5c1.667-1 2.5-3.833 2.5-8.5v-108c0-1.333 0.5-2.5 1.5-3.5l2.5-2.5 108-64c2-1.333 3.333-2.833 4-4.5s0.334-3.5-0.999-5.5v0zM920.999 778.665h-823.999c-12.667 0-23.5-6.167-32.5-18.5s-13.5-26.833-13.5-43.5v-82h918v82c0 16.667-4.833 31.167-14.5 43.5s-20.834 18.5-33.501 18.5v0zM51 497.665v-368.002c0-14.667 4.5-26.667 13.5-36s19.833-14 32.5-14h391c-9.333 16-16.666 34.5-21.999 55.5s-8 42.167-8 63.5c0 36 7 69.833 21 101.5s32.833 59.334 56.5 83.001 51.334 42.167 83.001 55.5 65.5 20 101.5 20c28 0 54.833-4.167 80.5-12.5s49.167-20.166 70.5-35.499 40.166-33.333 56.499-54 29.166-43.667 38.499-69v210h-915z" />
</font>
</defs>
</svg>
